<svg width="16" height="16" viewBox="0 0 16 16" fill="none" xmlns="http://www.w3.org/2000/svg">
<path fill-rule="evenodd" clip-rule="evenodd" d="M7.45756 1.62279C8.56213 1.52853 9.67224 1.72279 10.6792 2.18656C11.6861 2.65033 12.5553 3.3677 13.2016 4.26839V2.99959C13.2016 2.84046 13.2648 2.68785 13.3773 2.57533C13.4898 2.4628 13.6424 2.39959 13.8016 2.39959C13.9607 2.39959 14.1133 2.4628 14.2258 2.57533C14.3383 2.68785 14.4016 2.84046 14.4016 2.99959V6.39959H11.0016C10.8424 6.39959 10.6898 6.33638 10.5773 6.22385C10.4648 6.11133 10.4016 5.95872 10.4016 5.79959C10.4016 5.64046 10.4648 5.48785 10.5773 5.37533C10.6898 5.2628 10.8424 5.19959 11.0016 5.19959H12.3832C11.8361 4.34351 11.0502 3.66646 10.1225 3.25206C9.19493 2.83766 8.16624 2.70408 7.16355 2.8678C6.16086 3.03153 5.22809 3.48539 4.48048 4.17333C3.73286 4.86127 3.20314 5.75315 2.95676 6.73879C2.93859 6.81622 2.9052 6.88926 2.85855 6.95366C2.81189 7.01807 2.7529 7.07256 2.685 7.11396C2.6171 7.15537 2.54164 7.18286 2.46302 7.19484C2.38439 7.20682 2.30417 7.20305 2.22702 7.18374C2.14987 7.16444 2.07733 7.13 2.01361 7.08241C1.94989 7.03482 1.89626 6.97503 1.85585 6.90653C1.81545 6.83803 1.78906 6.76219 1.77823 6.6834C1.7674 6.60461 1.77234 6.52445 1.79276 6.44759C2.1164 5.15353 2.83628 3.99293 3.8518 3.12803C4.86731 2.26312 6.12769 1.73713 7.45676 1.62359L7.45756 1.62279ZM4.73756 13.5044C5.59515 14.0127 6.55963 14.3136 7.55411 14.3832C8.54859 14.4528 9.54557 14.2891 10.4656 13.9051C11.3856 13.5212 12.2032 12.9277 12.8532 12.1718C13.5032 11.416 13.9677 10.5187 14.2096 9.55159C14.2456 9.39815 14.2198 9.23669 14.1377 9.10212C14.0557 8.96755 13.924 8.87067 13.7711 8.83242C13.6182 8.79417 13.4563 8.81762 13.3206 8.8977C13.1848 8.97778 13.086 9.10806 13.0456 9.26039C12.799 10.2458 12.2693 11.1375 11.5218 11.8252C10.7742 12.513 9.84159 12.9668 8.83907 13.1305C7.83655 13.2942 6.80803 13.1607 5.88053 12.7465C4.95303 12.3322 4.16715 11.6554 3.61996 10.7996H5.00156C5.16069 10.7996 5.3133 10.7364 5.42583 10.6239C5.53835 10.5113 5.60156 10.3587 5.60156 10.1996C5.60156 10.0405 5.53835 9.88785 5.42583 9.77532C5.3133 9.6628 5.16069 9.59959 5.00156 9.59959H1.60156V12.9996C1.60156 13.1587 1.66478 13.3113 1.7773 13.4239C1.88982 13.5364 2.04243 13.5996 2.20156 13.5996C2.36069 13.5996 2.5133 13.5364 2.62583 13.4239C2.73835 13.3113 2.80156 13.1587 2.80156 12.9996V11.7308C3.31739 12.4494 3.97659 13.0533 4.73756 13.5044Z" fill="#F1F1F1"/>
</svg>
