<svg width="86" height="64" viewBox="0 0 86 64" fill="none" xmlns="http://www.w3.org/2000/svg">
<mask id="mask0_20617_270137" style="mask-type:alpha" maskUnits="userSpaceOnUse" x="0" y="0" width="86" height="64">
<path d="M82.8154 19.7763C78.9222 12.1845 70.2204 7.47191 62.3625 9.55074C58.0817 10.6887 54.3354 13.6014 50.0171 14.559C46.3523 15.3555 42.5419 14.6955 39.2994 12.7026C34.5595 9.76555 31.5339 4.24942 26.6561 1.58659C19.9336 -2.08833 11.1812 0.968205 6.36373 7.1852C-5.04475 21.908 1.90671 43.1066 14.5843 53.831C21.0157 59.2717 24.7113 61.1559 34.0089 63.3731C41.9068 65.265 55.3405 62.5106 63.072 59.9466C70.8035 57.3826 77.9123 52.1037 81.9787 44.6136C86.045 37.1234 86.7107 27.3673 82.8154 19.7763Z" fill="#060B17"/>
</mask>
<g mask="url(#mask0_20617_270137)">
<path d="M32.3471 34.0897C32.3474 34.1635 32.3258 34.2358 32.2851 34.2973C32.2443 34.3588 32.1863 34.4069 32.1182 34.4354C32.0501 34.4638 31.9751 34.4715 31.9027 34.4573C31.8303 34.4431 31.7637 34.4078 31.7114 34.3557C31.6591 34.3036 31.6234 34.2372 31.6089 34.1649C31.5943 34.0925 31.6016 34.0175 31.6298 33.9493C31.6579 33.8811 31.7057 33.8227 31.767 33.7817C31.8284 33.7407 31.9005 33.7188 31.9743 33.7188C32.0232 33.7185 32.0716 33.7279 32.1168 33.7465C32.162 33.765 32.2031 33.7923 32.2378 33.8268C32.2724 33.8613 32.2999 33.9022 32.3186 33.9474C32.3374 33.9925 32.3471 34.0409 32.3471 34.0897Z" fill="#263238"/>
<path d="M19.2354 51.9088C18.4673 51.9087 17.7015 51.8258 16.9512 51.6615C15.3931 51.3188 14.1724 50.8153 13.2414 50.1264C12.0788 50.5321 10.8598 50.7532 9.62875 50.7817C5.62216 50.8895 1.99538 49.637 -2.45109 46.0385C-2.67486 45.5603 -2.89038 45.0545 -3.09766 44.521C1.18275 47.9853 5.81648 49.9974 9.60578 49.902C10.5738 49.8765 11.5342 49.7239 12.4623 49.448C11.4289 48.3704 10.9077 46.9624 10.9148 45.2524C10.9148 43.378 11.7204 42.5283 12.3881 42.1467C13.3333 41.6044 14.6264 41.6786 15.7605 42.3393C17.0113 43.0689 17.755 44.302 17.7497 45.6393C17.7411 46.1877 17.6082 46.727 17.3609 47.2166C17.1137 47.7062 16.7586 48.1333 16.3223 48.4658C15.6721 48.9647 14.9674 49.3884 14.2218 49.7289C16.3545 50.899 18.8284 51.2888 21.2175 50.8312C24.9821 50.084 28.1266 48.7484 30.5627 46.8617C32.4695 45.3963 34.0008 43.4987 35.0303 41.3254C36.0598 39.1521 36.5582 36.7652 36.4842 34.3614V34.3455C36.2669 29.9909 33.7248 25.737 30.0044 23.5076C26.7787 21.5732 22.6449 21.0432 18.3662 22.0148C15.7075 22.619 12.0896 24.0517 9.95733 27.4488C7.66078 31.1092 8.28262 35.651 10.1782 37.7621C11.5296 39.269 14.1194 38.7249 16.2022 38.2921L16.8876 38.1507C19.1259 37.7056 28.2078 33.4464 28.2432 33.434L28.4357 34.1583C28.2891 34.2095 19.359 38.5571 17.059 39.0146C16.8399 39.057 16.6138 39.1047 16.3824 39.1542C14.0858 39.6364 11.2134 40.2371 9.52276 38.3539C8.30029 36.9901 7.62015 35.0221 7.60779 32.8122C7.59426 30.7581 8.14943 28.7404 9.21184 26.9825C11.5084 23.3309 15.3507 21.7993 18.1719 21.1528C22.6714 20.1317 27.0348 20.697 30.4567 22.7427C34.4138 25.1276 37.1167 29.6623 37.3569 34.2943C37.3763 34.531 37.6131 37.9087 35.8059 41.7316C34.7213 44.0213 33.1068 46.0197 31.0962 47.5613C28.5505 49.5328 25.2841 50.9178 21.38 51.6986C20.6738 51.8389 19.9554 51.9093 19.2354 51.9088ZM13.8102 42.6679C13.4659 42.6625 13.1261 42.7471 12.8245 42.9134C12.155 43.2968 11.7999 44.1076 11.7946 45.2594C11.7946 46.9077 12.3051 48.1814 13.3845 49.1282C14.2418 48.7872 15.0479 48.3295 15.78 47.768C16.1098 47.518 16.3789 47.1967 16.567 46.828C16.7551 46.4594 16.8575 46.053 16.8664 45.6393C16.8664 44.6199 16.2905 43.6731 15.3136 43.1042C14.8594 42.8294 14.341 42.6789 13.8102 42.6679Z" fill="#FF3B59"/>
<path d="M13.9488 50.5756C13.8299 50.5423 13.718 50.4879 13.6185 50.4148C13.3672 50.2561 13.1281 50.079 12.903 49.8849C12.6743 49.6961 12.461 49.4893 12.2653 49.2666C12.1772 49.1791 12.107 49.0753 12.0586 48.9609C12.0692 48.9609 12.1522 49.0669 12.3112 49.2259C12.4702 49.3849 12.6963 49.5969 12.9578 49.8177C13.2192 50.0385 13.4683 50.2293 13.652 50.3583C13.756 50.4236 13.8552 50.4962 13.9488 50.5756Z" fill="#263238"/>
<path d="M14.8704 50.0661C14.7327 50.0584 14.5977 50.0243 14.473 49.9654C14.1668 49.8393 13.881 49.6685 13.625 49.4584C13.3679 49.2507 13.1361 49.0135 12.9343 48.7518C12.844 48.6463 12.7712 48.527 12.7188 48.3984C12.7293 48.3984 12.8177 48.5186 12.982 48.7076C13.1966 48.9535 13.4331 49.1793 13.6886 49.3824C13.9394 49.5877 14.214 49.7621 14.5065 49.9018C14.722 50.0149 14.874 50.052 14.8704 50.0661Z" fill="#263238"/>
<path d="M11.3466 47.0247C11.3197 46.9806 11.3006 46.9322 11.2901 46.8816C11.2489 46.748 11.2147 46.6124 11.1876 46.4753C11.0093 45.5651 11.0757 44.6238 11.3802 43.7477C11.4249 43.6158 11.4774 43.4866 11.5374 43.3608C11.5558 43.3128 11.5807 43.2676 11.6116 43.2266C11.6257 43.2266 11.5392 43.4333 11.435 43.7671C11.3032 44.203 11.2196 44.6521 11.1859 45.1062C11.1553 45.5599 11.1755 46.0155 11.2459 46.4647C11.3025 46.8109 11.3608 47.0212 11.3466 47.0247Z" fill="#060B17"/>
<path d="M9.14663 50.1798C9.00895 50.2245 8.8656 50.2495 8.72089 50.2539C8.024 50.3124 7.32291 50.2127 6.6699 49.9625C6.53235 49.9174 6.40159 49.8538 6.28125 49.7734C6.42052 49.8082 6.55742 49.8519 6.6911 49.9042C7.01698 50.0108 7.35154 50.0888 7.69098 50.1374C8.03091 50.1848 8.37429 50.2032 8.71736 50.1921C8.86007 50.1794 9.00342 50.1752 9.14663 50.1798Z" fill="#060B17"/>
<path d="M33.5027 44.3281C33.431 44.4655 33.3446 44.5947 33.2448 44.7132C32.791 45.3064 32.2679 45.8431 31.6866 46.312C31.5712 46.415 31.4444 46.5045 31.3086 46.5787C31.4123 46.4683 31.5239 46.3656 31.6425 46.2714C31.8545 46.0823 32.1424 45.8156 32.4463 45.5064C32.7501 45.1973 33.008 44.8987 33.1918 44.6814C33.2866 44.5562 33.3906 44.4382 33.5027 44.3281Z" fill="#060B17"/>
<path d="M8.30424 35.3308C8.26598 35.2559 8.23578 35.1771 8.21414 35.0958C8.1432 34.8796 8.08422 34.6596 8.03748 34.4369C7.95901 34.1074 7.90003 33.7735 7.86083 33.437C7.76826 32.6106 7.79025 31.7754 7.92619 30.955C7.98209 30.6205 8.05759 30.2896 8.15231 29.9639C8.21496 29.7442 8.28866 29.5278 8.37313 29.3156C8.39921 29.2357 8.43355 29.1587 8.4756 29.0859C8.45857 29.1684 8.43494 29.2493 8.40493 29.328C8.35194 29.4799 8.2848 29.7025 8.21238 29.9798C8.12609 30.3051 8.0571 30.6347 8.00569 30.9673C7.94524 31.3771 7.90808 31.79 7.89439 32.2039C7.88513 32.6167 7.90106 33.0297 7.94209 33.4405C7.97566 33.7751 8.02697 34.1077 8.09578 34.4369C8.15408 34.7178 8.20884 34.9439 8.25301 35.0976C8.27622 35.1738 8.29336 35.2518 8.30424 35.3308Z" fill="#060B17"/>
<path d="M9.37243 27.3984C9.32827 27.5666 9.256 27.7261 9.15867 27.8701C9.08593 28.0283 8.98743 28.1734 8.86719 28.2994C8.91246 28.1313 8.98529 27.9719 9.08271 27.8277C9.15595 27.6702 9.25374 27.5253 9.37243 27.3984Z" fill="#060B17"/>
<path d="M40.7711 34.6533L39.2006 26.5801C39.1655 26.4268 39.0722 26.2932 38.9404 26.2074C38.8086 26.1216 38.6486 26.0905 38.4942 26.1205C38.3398 26.1506 38.2032 26.2395 38.1132 26.3684C38.0231 26.4974 37.9868 26.6563 38.0117 26.8115L38.0842 27.179L34.8354 27.9775C34.4909 28.0619 34.1724 28.2296 33.9078 28.4659C33.6433 28.7021 33.4407 28.9997 33.3179 29.3324L31.3588 29.8147C31.0328 29.8949 30.752 30.1013 30.5781 30.3885C30.4041 30.6757 30.3514 31.0202 30.4313 31.3463L30.608 32.0529L28.6913 32.5264C28.5643 32.5577 28.4447 32.6137 28.3393 32.6913C28.2339 32.7688 28.1449 32.8664 28.0772 32.9783C28.0095 33.0903 27.9646 33.2145 27.9449 33.3438C27.9252 33.4731 27.9312 33.6051 27.9626 33.7321C27.9939 33.8591 28.0499 33.9787 28.1275 34.0841C28.205 34.1894 28.3025 34.2785 28.4145 34.3461C28.5264 34.4138 28.6506 34.4588 28.78 34.4784C28.9093 34.4981 29.0412 34.4921 29.1683 34.4608L31.0868 33.9891L31.2228 34.5421C31.303 34.8681 31.5094 35.1489 31.7966 35.3228C32.0838 35.4967 32.4283 35.5495 32.7544 35.4695L34.7489 34.9784V34.9625C35.0102 35.186 35.321 35.3441 35.6555 35.4236C35.99 35.5032 36.3387 35.502 36.6727 35.42L39.5557 34.7134L39.5893 34.8901C39.6244 35.0434 39.7177 35.177 39.8495 35.2628C39.9813 35.3485 40.1413 35.3797 40.2957 35.3496C40.4501 35.3196 40.5867 35.2307 40.6767 35.1017C40.7668 34.9728 40.8031 34.8139 40.7782 34.6586L40.7711 34.6533Z" fill="#FF3B59"/>
<path d="M40.7687 34.656C40.781 34.7002 40.7864 34.7461 40.7846 34.792C40.7822 34.9288 40.7337 35.0608 40.6468 35.1665C40.5753 35.252 40.4822 35.3167 40.3772 35.354C40.2722 35.3913 40.1591 35.3997 40.0497 35.3785C39.9427 35.3557 39.8436 35.305 39.7626 35.2314C39.6816 35.1579 39.6215 35.0642 39.5886 34.9598C39.5656 34.8821 39.555 34.8026 39.5374 34.7213L39.5603 34.7355L37.4405 35.2654L36.8063 35.4244C36.5817 35.4889 36.3491 35.5211 36.1155 35.5198C35.6041 35.51 35.1119 35.3226 34.7235 34.9898L34.7765 34.9563V34.9704L34.7853 35.004H34.7517C34.0787 35.1683 33.3738 35.3573 32.6159 35.5251C32.4138 35.551 32.2084 35.5294 32.0161 35.4619C31.8238 35.3944 31.6499 35.283 31.5083 35.1365C31.3614 34.9853 31.254 34.8002 31.1956 34.5977C31.1408 34.3963 31.0949 34.1949 31.0437 33.9917L31.0914 34.0218L29.4732 34.4298C29.3336 34.4599 29.2011 34.5023 29.051 34.5252C28.8596 34.5485 28.6656 34.518 28.4907 34.4369C28.3158 34.3559 28.167 34.2276 28.061 34.0666C27.9551 33.9056 27.8962 33.7181 27.891 33.5255C27.8858 33.3328 27.9345 33.1424 28.0317 32.9759C28.1135 32.8411 28.2237 32.7256 28.3545 32.6374C28.4854 32.5493 28.6338 32.4906 28.7895 32.4654L30.595 32.022L30.5632 32.0732C30.5278 31.9266 30.4907 31.7747 30.4519 31.621C30.4061 31.4632 30.3736 31.3019 30.3547 31.1387C30.3305 30.802 30.4375 30.4691 30.6533 30.2095C30.7587 30.0819 30.8877 29.9758 31.0331 29.8968C31.178 29.8225 31.3326 29.7689 31.4924 29.7378L33.3049 29.2926L33.2766 29.3191C33.4495 28.8568 33.7707 28.4648 34.19 28.2044C34.3945 28.0799 34.6175 27.9886 34.8507 27.9341L35.522 27.7681L38.0729 27.1445L38.0446 27.1886C38.0252 27.0933 38.0075 26.9961 37.9881 26.9007C37.9629 26.8033 37.9563 26.702 37.9687 26.6021C37.9845 26.5034 38.0233 26.4097 38.0818 26.3285C38.1404 26.2474 38.2171 26.1811 38.3058 26.1349C38.3946 26.0887 38.4929 26.0639 38.593 26.0626C38.693 26.0612 38.792 26.0832 38.882 26.1269C38.9701 26.1672 39.0478 26.2272 39.109 26.3022C39.1703 26.3773 39.2135 26.4654 39.2353 26.5597L39.6222 28.5577C39.8624 29.812 40.0726 30.9073 40.2458 31.8135C40.4189 32.7198 40.5514 33.4264 40.645 33.9158C40.6892 34.156 40.7227 34.3415 40.7457 34.4705C40.7563 34.5323 40.7651 34.5782 40.7704 34.6136C40.7721 34.63 40.7721 34.6466 40.7704 34.663C40.7645 34.6476 40.7604 34.6316 40.7581 34.6153C40.7581 34.58 40.7404 34.5341 40.728 34.474L40.6132 33.9193C40.5161 33.4317 40.3747 32.7216 40.1945 31.8224C40.0143 30.9232 39.8006 29.8226 39.5533 28.5701C39.4296 27.9436 39.2983 27.2787 39.1593 26.5756C39.1399 26.4924 39.1018 26.4146 39.0479 26.3482C38.9941 26.2818 38.9258 26.2285 38.8484 26.1923C38.7686 26.1543 38.681 26.1356 38.5926 26.1376C38.5043 26.1396 38.4176 26.1624 38.3397 26.2039C38.2617 26.2455 38.1945 26.3048 38.1436 26.377C38.0926 26.4492 38.0594 26.5324 38.0464 26.6198C38.0339 26.7113 38.0399 26.8045 38.0641 26.8936C38.0835 26.989 38.1029 27.0844 38.1206 27.1816V27.2169L38.0852 27.2257L35.5361 27.8564C35.0962 27.9783 34.6228 28.0331 34.2288 28.2822C33.8237 28.5326 33.5131 28.9104 33.3455 29.3562L33.3367 29.3774H33.3155L31.503 29.8244C31.3505 29.8533 31.203 29.9038 31.0649 29.9745C30.93 30.0488 30.8102 30.1477 30.7116 30.266C30.5096 30.508 30.4095 30.819 30.4324 31.1334C30.4506 31.2919 30.4825 31.4486 30.5278 31.6016C30.5649 31.757 30.6038 31.9089 30.6391 32.0556L30.6497 32.0962L30.6073 32.1068L28.8125 32.5502C28.6673 32.5713 28.5285 32.6244 28.4063 32.7057C28.2841 32.787 28.1815 32.8944 28.1059 33.0201C28.0186 33.1726 27.9754 33.3463 27.9811 33.5218C27.9868 33.6974 28.0411 33.868 28.138 34.0145C28.2348 34.161 28.3705 34.2778 28.5299 34.3517C28.6892 34.4257 28.8659 34.4539 29.0404 34.4334C29.1746 34.4157 29.316 34.3715 29.4538 34.3397L31.0702 33.944L31.109 33.9352L31.1179 33.9723C31.1691 34.1755 31.215 34.3804 31.268 34.5765C31.3227 34.767 31.4234 34.9411 31.5613 35.0835C31.6945 35.2217 31.858 35.327 32.0389 35.3911C32.2198 35.4551 32.4131 35.4762 32.6036 35.4527C33.3473 35.2866 34.0645 35.0994 34.7341 34.9386L34.7111 34.9792V34.9651L34.6864 34.8644L34.7641 34.9315C35.1412 35.2547 35.619 35.4364 36.1155 35.4456C36.3437 35.4476 36.571 35.4166 36.7904 35.3538L37.4246 35.2001L39.5444 34.686H39.5639V34.7054C39.5815 34.7867 39.5921 34.8697 39.6133 34.9421C39.6345 35.0135 39.6693 35.0801 39.7158 35.1382C39.8021 35.2432 39.9208 35.3165 40.0532 35.3467C40.1379 35.3641 40.2254 35.363 40.3097 35.3434C40.3939 35.3238 40.473 35.2862 40.5413 35.2332C40.6096 35.1801 40.6656 35.1129 40.7055 35.0361C40.7454 34.9594 40.7681 34.8749 40.7722 34.7885C40.7732 34.7443 40.7721 34.7 40.7687 34.656Z" fill="#263238"/>
<path d="M39.6188 34.698C39.5958 34.698 39.2178 33.0268 38.7744 30.9564C38.331 28.8859 37.9882 27.2006 38.013 27.1953C38.0377 27.19 38.414 28.8647 38.8592 30.9369C39.3043 33.0091 39.6435 34.6927 39.6188 34.698Z" fill="#263238"/>
<path d="M34.7419 34.9635C34.7189 34.9635 34.3886 33.711 33.9893 32.1546C33.5901 30.5983 33.2986 29.3281 33.3216 29.3281C33.3445 29.3281 33.6749 30.5806 34.0741 32.1405C34.4734 33.7004 34.7649 34.9635 34.7419 34.9635Z" fill="#263238"/>
<path d="M31.0846 33.9916C30.955 33.6853 30.8608 33.3653 30.8037 33.0376C30.7191 32.7169 30.6542 32.3912 30.6094 32.0625C30.738 32.3696 30.8317 32.6902 30.8885 33.0182C30.9732 33.3385 31.0386 33.6635 31.0846 33.9916Z" fill="#263238"/>
<path d="M32.8257 29.799C32.8257 29.8114 32.6367 29.8396 32.3328 29.9032C32.1809 29.935 32.0007 29.9757 31.8029 30.0304C31.59 30.0851 31.3847 30.1658 31.1916 30.2707C30.9955 30.3597 30.8407 30.5202 30.7588 30.7194C30.7191 30.8935 30.7155 31.0738 30.7482 31.2494C30.7871 31.555 30.8383 31.7422 30.826 31.7458C30.7541 31.5916 30.707 31.427 30.6864 31.2582C30.6462 31.0743 30.6462 30.8839 30.6864 30.6999C30.7179 30.5886 30.779 30.4879 30.8631 30.4085C30.9494 30.3256 31.0462 30.2543 31.151 30.1965C31.3498 30.0869 31.5625 30.0048 31.7834 29.9527C31.9848 29.9015 32.1686 29.8679 32.3134 29.8432C32.4815 29.8058 32.6537 29.791 32.8257 29.799Z" fill="#060B17"/>
<path d="M37.4718 27.6563C37.4188 27.6819 37.3622 27.6991 37.3039 27.7075C37.1962 27.734 37.0372 27.7711 36.8411 27.8135L35.3112 28.135C35.034 28.1927 34.7656 28.2866 34.5127 28.4141C34.3079 28.5207 34.1274 28.6687 33.9828 28.8487C33.8535 29.0188 33.7636 29.2155 33.7196 29.4246C33.7104 29.3655 33.7146 29.3052 33.7319 29.2479C33.7708 29.0901 33.8411 28.9417 33.9386 28.8116C34.0823 28.6189 34.2661 28.4598 34.4774 28.3452C34.7345 28.2083 35.01 28.1089 35.2953 28.0502C35.896 27.9213 36.4383 27.8259 36.834 27.7534C37.0301 27.7181 37.1873 27.6916 37.3022 27.6739C37.3579 27.6618 37.4148 27.6559 37.4718 27.6563Z" fill="#060B17"/>
<path d="M30.2718 32.5035C30.1693 32.5731 30.053 32.6195 29.9308 32.6395C29.71 32.6996 29.4008 32.7243 29.067 32.795C28.9127 32.8263 28.7636 32.8786 28.6235 32.9505C28.5105 33.0092 28.4083 33.0869 28.3215 33.1801C28.2465 33.2729 28.1819 33.3736 28.1289 33.4804C28.1367 33.3541 28.1878 33.2342 28.2738 33.1413C28.3596 33.0349 28.4652 32.9461 28.5847 32.8798C28.7288 32.7972 28.885 32.7376 29.0475 32.7031C29.3885 32.6307 29.6994 32.6166 29.9167 32.5724C30.134 32.5282 30.2665 32.4876 30.2718 32.5035Z" fill="#060B17"/>
<path d="M38.795 26.2763C38.795 26.2905 38.7297 26.2887 38.636 26.3134C38.5167 26.3458 38.4093 26.4121 38.3269 26.5042C38.2475 26.6001 38.1988 26.7177 38.1873 26.8417C38.1767 26.937 38.1873 27.0006 38.175 27.0024C38.1626 27.0042 38.1308 26.9476 38.1255 26.8399C38.1195 26.697 38.1674 26.557 38.2598 26.4477C38.3537 26.3402 38.4838 26.2711 38.6254 26.2534C38.7332 26.241 38.7968 26.2657 38.795 26.2763Z" fill="#060B17"/>
<path d="M93.8935 51.9469C93.5406 51.9479 93.1894 51.8973 92.8512 51.7967C89.4947 50.7916 89.6713 48.3696 89.8074 46.4228C89.9381 44.6086 89.9434 43.4673 88.4471 42.9056C86.4668 42.1636 85.6524 42.8844 84.4175 43.9761C82.9478 45.2763 81.1211 46.8945 76.687 46.2373C74.3905 45.8964 70.6807 44.6827 66.1388 40.8351C64.5191 39.4729 63.0219 37.9714 61.6641 36.348L62.3495 35.7969C62.4184 35.8817 69.2003 44.2393 76.816 45.3664C80.8438 45.9635 82.4319 44.5573 83.8346 43.3172C85.0924 42.2042 86.2795 41.1531 88.7563 42.0806C90.9433 42.902 90.8072 44.8046 90.6854 46.4847C90.544 48.4509 90.4221 50.1485 93.1038 50.9523C96.1246 51.8568 100.098 47.0659 102.467 44.2111C103.315 43.1918 103.903 42.4533 104.373 42.07L105.037 42.6C104.744 42.9533 103.928 43.8366 103.143 44.7746C100.73 47.6877 97.1934 51.9469 93.8935 51.9469Z" fill="#FF3B59"/>
<path d="M81.4458 44.9875C81.4458 44.9875 81.4105 45.021 81.3398 45.0652C81.2408 45.1308 81.1375 45.1898 81.0307 45.2419C80.6776 45.4146 80.3043 45.5428 79.9195 45.6234C79.535 45.7026 79.1421 45.7328 78.75 45.7135C78.6317 45.7073 78.5138 45.6949 78.3967 45.6764C78.3531 45.6727 78.3102 45.6626 78.2695 45.6464C78.2695 45.6323 78.4568 45.6464 78.7536 45.6464C79.5287 45.6503 80.2961 45.4914 81.006 45.18C81.2763 45.0564 81.4388 44.9663 81.4458 44.9875Z" fill="#060B17"/>
<path d="M86.6071 42.328C86.511 42.3315 86.4147 42.328 86.3191 42.3174C85.8576 42.3108 85.4083 42.4658 85.0489 42.7555C84.98 42.8227 84.9062 42.8847 84.8281 42.941C84.8687 42.8514 84.9291 42.7723 85.0048 42.7096C85.1792 42.5451 85.3866 42.4198 85.6132 42.3418C85.8398 42.2638 86.0805 42.235 86.3191 42.2573C86.4193 42.2581 86.5179 42.2823 86.6071 42.328Z" fill="#060B17"/>
<path d="M62.4464 36.5352C62.2653 36.7345 62.0125 36.8537 61.7435 36.8666C61.4745 36.8796 61.2114 36.7851 61.012 36.6041L59.4609 35.1909L60.8283 33.6875L62.3775 35.1008C62.5768 35.2819 62.696 35.5347 62.709 35.8037C62.7219 36.0727 62.6275 36.3358 62.4464 36.5352Z" fill="#FF3B59"/>
<path d="M62.4462 36.5388C62.4982 36.4626 62.5459 36.3836 62.5892 36.3021C62.6984 36.0716 62.7154 35.8081 62.6369 35.5654C62.5838 35.3976 62.4868 35.247 62.3561 35.1291L61.8879 34.7104C61.5576 34.4101 61.1901 34.0798 60.7997 33.7282H60.8598L60.1761 34.4808L59.4924 35.2316V35.1715L60.5736 36.1555L61.0364 36.5812C61.1658 36.6999 61.3243 36.7821 61.4957 36.8197C61.7451 36.8744 62.006 36.832 62.2253 36.7014C62.3027 36.6504 62.377 36.5949 62.4479 36.5353C62.3913 36.6111 62.3213 36.6757 62.2412 36.7261C62.0184 36.8729 61.7466 36.9256 61.4851 36.8727C61.302 36.8369 61.1318 36.7528 60.9923 36.6289C60.8456 36.4982 60.6902 36.3569 60.5241 36.2102L59.4341 35.2263L59.4023 35.198L59.4324 35.1662L60.1143 34.4136L60.7979 33.6646L60.8262 33.6328L60.858 33.6611L61.9391 34.6521L62.402 35.0779C62.5392 35.2048 62.6393 35.3666 62.6917 35.546C62.7685 35.8008 62.7418 36.0756 62.6175 36.3109C62.5757 36.3973 62.5175 36.4747 62.4462 36.5388Z" fill="#263238"/>
<path d="M54.6111 28.0535L51.9365 25.8417C51.8866 25.8005 51.8454 25.7498 51.8151 25.6925C51.7848 25.6353 51.7661 25.5726 51.76 25.5082C51.7539 25.4437 51.7606 25.3786 51.7797 25.3167C51.7988 25.2549 51.8299 25.1973 51.8712 25.1475C51.9125 25.0976 51.9632 25.0563 52.0204 25.026C52.0776 24.9957 52.1403 24.977 52.2048 24.9709C52.2692 24.9648 52.3343 24.9715 52.3962 24.9906C52.4581 25.0097 52.5156 25.0408 52.5654 25.0821L55.2383 27.2939L54.6111 28.0535Z" fill="#FF3B59"/>
<path d="M52.093 31.2808L49.422 29.069C49.3719 29.0279 49.3305 28.9773 49.3 28.9201C49.2696 28.8629 49.2507 28.8003 49.2445 28.7358C49.2382 28.6713 49.2448 28.6063 49.2637 28.5443C49.2826 28.4824 49.3136 28.4247 49.3548 28.3748C49.396 28.3247 49.4466 28.2832 49.5039 28.2528C49.5611 28.2223 49.6238 28.2036 49.6884 28.1975C49.7529 28.1914 49.818 28.1982 49.8799 28.2174C49.9418 28.2366 49.9993 28.2679 50.0491 28.3094L52.7237 30.5194L52.093 31.2808Z" fill="#FF3B59"/>
<g opacity="0.6">
<path opacity="0.6" d="M54.6111 28.0535L51.9365 25.8417C51.8866 25.8005 51.8454 25.7498 51.8151 25.6925C51.7848 25.6353 51.7661 25.5726 51.76 25.5082C51.7539 25.4437 51.7606 25.3786 51.7797 25.3167C51.7988 25.2549 51.8299 25.1973 51.8712 25.1475C51.9125 25.0976 51.9632 25.0563 52.0204 25.026C52.0776 24.9957 52.1403 24.977 52.2048 24.9709C52.2692 24.9648 52.3343 24.9715 52.3962 24.9906C52.4581 25.0097 52.5156 25.0408 52.5654 25.0821L55.2383 27.2939L54.6111 28.0535Z" fill="#060B17"/>
</g>
<g opacity="0.6">
<path opacity="0.6" d="M52.093 31.2808L49.422 29.069C49.3719 29.0279 49.3305 28.9773 49.3 28.9201C49.2696 28.8629 49.2507 28.8003 49.2445 28.7358C49.2382 28.6713 49.2448 28.6063 49.2637 28.5443C49.2826 28.4824 49.3136 28.4247 49.3548 28.3748C49.396 28.3247 49.4466 28.2832 49.5039 28.2528C49.5611 28.2223 49.6238 28.2036 49.6884 28.1975C49.7529 28.1914 49.818 28.1982 49.8799 28.2174C49.9418 28.2366 49.9993 28.2679 50.0491 28.3094L52.7237 30.5194L52.093 31.2808Z" fill="#060B17"/>
</g>
<path d="M54.6079 28.0487C54.6201 28.0283 54.6337 28.0089 54.6485 27.9904L54.7687 27.8349L55.2156 27.2714V27.3085L53.9596 26.2874L53.1734 25.6408L52.7512 25.2875L52.5339 25.1108C52.4677 25.0538 52.3858 25.0181 52.299 25.0084C52.2256 24.999 52.151 25.0079 52.082 25.0345C52.0129 25.061 51.9515 25.1042 51.9033 25.1603C51.8566 25.2151 51.8236 25.2802 51.807 25.3502C51.7904 25.4202 51.7907 25.4932 51.8079 25.5631C51.8248 25.6289 51.8576 25.6895 51.9033 25.7397C51.9531 25.792 52.0069 25.8404 52.064 25.8846L52.3962 26.1602L53.5409 27.123L54.3164 27.7837L54.5284 27.9603C54.5554 27.982 54.5808 28.0056 54.6044 28.031C54.578 28.0158 54.5531 27.998 54.5302 27.978L54.3182 27.8013C54.1221 27.6441 53.8536 27.4304 53.5285 27.1671L52.352 26.2114L52.0128 25.9341C51.9509 25.8864 51.8919 25.8351 51.8361 25.7804C51.7614 25.6995 51.7137 25.5974 51.6996 25.4882C51.6856 25.379 51.7059 25.2681 51.7578 25.171C51.8097 25.0738 51.8905 24.9953 51.9891 24.9462C52.0876 24.8971 52.1991 24.8799 52.3078 24.8971C52.4111 24.9104 52.5085 24.9526 52.5887 25.019L52.8042 25.1956L53.2247 25.549L54.0073 26.2008L55.2439 27.2413L55.2651 27.259L55.2474 27.2784L54.7687 27.8367L54.6415 27.978C54.6333 28.0029 54.622 28.0266 54.6079 28.0487Z" fill="#263238"/>
<path d="M52.0953 31.2866C52.1073 31.2658 52.1216 31.2462 52.1377 31.2283C52.1695 31.186 52.2084 31.1347 52.2579 31.0729L52.7048 30.5094V30.5464L51.4488 29.5236L50.6626 28.8788L50.2404 28.5255L50.0231 28.3488C49.9555 28.2929 49.8734 28.2574 49.7864 28.2464C49.7129 28.2377 49.6384 28.2471 49.5694 28.2739C49.5004 28.3007 49.4391 28.344 49.3907 28.4001C49.3438 28.4547 49.3108 28.5198 49.2945 28.59C49.2782 28.6601 49.2791 28.7331 49.2971 28.8028C49.3138 28.8683 49.3459 28.9289 49.3907 28.9795C49.4412 29.0312 49.4956 29.079 49.5532 29.1226L49.8836 29.3999L51.0301 30.3627L51.8056 31.0234L52.0176 31.2001C52.0449 31.2208 52.0698 31.2445 52.0918 31.2707C52.0918 31.2707 52.0671 31.2548 52.0194 31.2177L51.8056 31.0499L51.016 30.4157L49.8412 29.46L49.502 29.1809C49.4392 29.1343 49.3802 29.0829 49.3253 29.0272C49.2703 28.9645 49.2315 28.8893 49.2123 28.8081C49.1908 28.7253 49.1897 28.6385 49.2091 28.5551C49.2285 28.4717 49.2677 28.3943 49.3236 28.3294C49.382 28.2639 49.4554 28.2136 49.5376 28.1828C49.6198 28.152 49.7082 28.1417 49.7953 28.1527C49.8985 28.1661 49.9959 28.2084 50.0761 28.2746C50.1486 28.3365 50.221 28.3948 50.2934 28.4513L50.7139 28.8046L51.4965 29.4547L52.7331 30.497L52.7525 30.5147L52.7366 30.5341C52.5352 30.7655 52.3745 30.9528 52.2561 31.0906L52.1307 31.2336C52.113 31.2725 52.0953 31.2884 52.0953 31.2866Z" fill="#263238"/>
<path d="M60.6875 30.8543L60.7581 30.7695C60.9075 30.5897 60.9849 30.3609 60.9754 30.1274C60.9659 29.8938 60.8703 29.6721 60.7069 29.505C60.5435 29.3378 60.3239 29.2372 60.0907 29.2224C59.8574 29.2077 59.6269 29.2799 59.4438 29.4252L55.5291 26.1641L51.0508 31.5221L55.0574 34.7019C54.9332 34.8961 54.8842 35.1289 54.9196 35.3567C54.9551 35.5844 55.0726 35.7913 55.2499 35.9385C55.4399 36.0956 55.6838 36.1721 55.9294 36.1516C56.1751 36.1311 56.4029 36.0153 56.5643 35.829C57.1298 36.2556 57.8393 36.445 58.5423 36.357C59.2452 36.2689 59.8861 35.9103 60.3288 35.3573L60.9719 34.5553C61.4011 34.0167 61.6104 33.3355 61.5576 32.6489C61.5048 31.9622 61.1939 31.321 60.6875 30.8543Z" fill="#FF3B59"/>
<path d="M60.6868 30.8536L60.7203 30.8837L60.814 30.9738C60.8658 31.0216 60.9137 31.0736 60.9571 31.1292L61.0436 31.2352L61.132 31.3642C61.2881 31.5894 61.4073 31.8381 61.4853 32.1009C61.6029 32.4975 61.6285 32.9157 61.5602 33.3238C61.492 33.7318 61.3316 34.1189 61.0913 34.4557C60.9482 34.6589 60.7822 34.8514 60.6197 35.0616C60.4558 35.2836 60.2744 35.4922 60.0773 35.6852C59.6294 36.1043 59.0528 36.3596 58.4415 36.4095C57.7647 36.4683 57.0899 36.2759 56.5459 35.869H56.6007C56.4354 36.0574 56.2052 36.1766 55.9559 36.2028C55.8264 36.2165 55.6955 36.2041 55.5708 36.1665C55.4461 36.1289 55.3302 36.0668 55.2298 35.9838C55.0445 35.8297 54.9218 35.6134 54.8848 35.3753C54.8477 35.1372 54.8988 34.8937 55.0284 34.6906L55.0373 34.7454L51.9299 32.2669L51.0236 31.5461L50.9883 31.5196L51.0165 31.4843C52.6489 29.5411 54.1734 27.7144 55.5001 26.1316L55.5248 26.1016L55.5531 26.1263L59.459 29.3962H59.429C59.5718 29.2839 59.7435 29.2142 59.9242 29.1953C60.1049 29.1764 60.2873 29.209 60.4503 29.2893C60.6132 29.3697 60.7501 29.4946 60.8451 29.6495C60.9401 29.8044 60.9893 29.983 60.9871 30.1647C60.9837 30.3552 60.9221 30.5402 60.8104 30.6947C60.7821 30.7336 60.7514 30.7708 60.7186 30.806L60.685 30.843C60.685 30.843 60.7274 30.7901 60.7998 30.6876C60.9039 30.5305 60.9592 30.3461 60.9588 30.1576C60.9583 30.0091 60.9222 29.8628 60.8537 29.7309C60.7852 29.5991 60.6862 29.4856 60.5649 29.3998C60.4112 29.2865 60.2258 29.2247 60.0349 29.2231C59.8229 29.2206 59.6164 29.291 59.4502 29.4227L59.4343 29.4351L59.4184 29.4227L55.4966 26.1722H55.5496L51.0837 31.5426V31.4808L51.9882 32.2015L55.0885 34.6748L55.1185 34.6977L55.0973 34.7295C54.9774 34.9147 54.9292 35.1373 54.9617 35.3556C54.9943 35.5738 55.1053 35.7727 55.274 35.9149C55.456 36.0654 55.6896 36.1387 55.925 36.1193C56.1604 36.0998 56.3788 35.989 56.5336 35.8107L56.5583 35.7842L56.5866 35.8054C57.0908 36.1817 57.7109 36.3696 58.3392 36.3364C58.9675 36.3031 59.5644 36.0509 60.0261 35.6234C60.2183 35.4324 60.3955 35.2269 60.5561 35.0086C60.7203 34.8002 60.8899 34.6059 61.0313 34.408C61.3471 33.9664 61.523 33.4402 61.5362 32.8975C61.5495 32.3548 61.3994 31.8206 61.1055 31.3642C61.0754 31.3183 61.0472 31.2741 61.0189 31.2335L60.9341 31.1275C60.8918 31.0703 60.8457 31.016 60.7963 30.9649L60.7062 30.8713C60.6921 30.8595 60.6856 30.8536 60.6868 30.8536Z" fill="#263238"/>
<path d="M56.2036 30.9562L53.4414 28.6719L52.9945 29.2123L55.7567 31.4966L56.2036 30.9562Z" fill="#060B17"/>
<path d="M60.6891 30.8516C60.6456 30.9251 60.596 30.9949 60.5407 31.06C60.4418 31.1925 60.2952 31.3798 60.1114 31.6094C59.7458 32.0705 59.2282 32.6976 58.6505 33.3848C58.0728 34.072 57.5587 34.6815 57.1683 35.1426L56.7196 35.6725C56.6666 35.7402 56.6074 35.8029 56.543 35.8598C56.5864 35.7862 56.6361 35.7165 56.6914 35.6513C56.7903 35.5189 56.9369 35.3316 57.1206 35.1019C57.4863 34.6409 58.0039 34.0137 58.5816 33.3354L60.0638 31.5688L60.5142 31.0388C60.5665 30.971 60.625 30.9083 60.6891 30.8516Z" fill="#263238"/>
<path d="M59.444 29.4141C59.3978 29.4918 59.3445 29.5651 59.285 29.6331C59.1772 29.7709 59.0182 29.9688 58.8221 30.2108C58.4264 30.6948 57.8717 31.3555 57.2534 32.0798C56.6351 32.8041 56.0804 33.4472 55.6635 33.933C55.4656 34.1591 55.3102 34.3481 55.1794 34.4912C55.1225 34.5621 55.0599 34.6283 54.9922 34.6891C55.0403 34.6122 55.094 34.539 55.1529 34.47C55.2607 34.3322 55.4179 34.1344 55.6158 33.8923C56.0115 33.4083 56.5662 32.7476 57.1845 32.0233L58.7744 30.1719L59.2585 29.6119C59.3151 29.5413 59.3771 29.4752 59.444 29.4141Z" fill="#263238"/>
<path d="M52.6844 21.6849H51.4088L52.0448 19.9453L50.1016 22.6094H51.3772L50.7412 24.349L52.6844 21.6849Z" fill="#D3F85A"/>
<path d="M43.363 23.6259H41.4435L42.4006 26.8359L39.4766 21.9198H41.396L40.439 18.7097L43.363 23.6259Z" fill="#D3F85A"/>
</g>
</svg>
