<svg width="40" height="40" viewBox="0 0 40 40" fill="none" xmlns="http://www.w3.org/2000/svg">
<path d="M3.75033 2.50032C3.41882 2.50035 3.10089 2.63206 2.86648 2.86648C2.63206 3.10089 2.50036 3.41882 2.50032 3.75033V11.2528C2.49653 11.4194 2.52606 11.585 2.58718 11.74C2.64829 11.895 2.73976 12.0362 2.85621 12.1553C2.97266 12.2744 3.11174 12.3691 3.26528 12.4337C3.41883 12.4983 3.58374 12.5316 3.75033 12.5316C3.91692 12.5316 4.08183 12.4983 4.23537 12.4337C4.38891 12.3691 4.528 12.2744 4.64444 12.1553C4.76089 12.0362 4.85236 11.895 4.91348 11.74C4.97459 11.585 5.00412 11.4194 5.00033 11.2528V5.00034H11.2516C11.4181 5.0041 11.5837 4.97455 11.7387 4.91342C11.8936 4.8523 12.0348 4.76082 12.1539 4.64438C12.273 4.52793 12.3676 4.38886 12.4322 4.23533C12.4969 4.0818 12.5301 3.9169 12.5301 3.75033C12.5301 3.58376 12.4969 3.41886 12.4322 3.26533C12.3676 3.1118 12.273 2.97273 12.1539 2.85628C12.0348 2.73984 11.8936 2.64836 11.7387 2.58724C11.5837 2.52611 11.4181 2.49656 11.2516 2.50032H3.75033ZM28.7517 2.50032C28.5851 2.49656 28.4195 2.52611 28.2646 2.58724C28.1096 2.64836 27.9684 2.73984 27.8493 2.85628C27.7302 2.97273 27.6356 3.1118 27.571 3.26533C27.5064 3.41886 27.4731 3.58376 27.4731 3.75033C27.4731 3.9169 27.5064 4.0818 27.571 4.23533C27.6356 4.38886 27.7302 4.52793 27.8493 4.64438C27.9684 4.76082 28.1096 4.8523 28.2646 4.91342C28.4195 4.97455 28.5851 5.0041 28.7517 5.00034H34.9992V11.2528C35.0066 11.5794 35.1416 11.8902 35.3752 12.1185C35.6088 12.3469 35.9225 12.4748 36.2492 12.4748C36.5759 12.4748 36.8896 12.3469 37.1232 12.1185C37.3569 11.8902 37.4918 11.5794 37.4992 11.2528V3.75033C37.4992 3.41882 37.3675 3.10089 37.1331 2.86647C36.8987 2.63206 36.5807 2.50035 36.2492 2.50032H28.7517ZM17.3331 16.0881C17.085 16.0891 16.8429 16.164 16.6374 16.3031C16.432 16.4422 16.2726 16.6393 16.1795 16.8693C16.0865 17.0992 16.0639 17.3517 16.1148 17.5945C16.1657 17.8374 16.2877 18.0596 16.4652 18.2329L18.2328 19.9992L16.4652 21.7668C16.3452 21.882 16.2494 22.02 16.1834 22.1727C16.1174 22.3253 16.0825 22.4896 16.0808 22.6559C16.0791 22.8223 16.1106 22.9872 16.1735 23.1412C16.2364 23.2952 16.3293 23.4351 16.4469 23.5527C16.5645 23.6703 16.7044 23.7633 16.8584 23.8262C17.0124 23.889 17.1774 23.9205 17.3437 23.9188C17.51 23.9171 17.6743 23.8822 17.827 23.8162C17.9797 23.7502 18.1176 23.6544 18.2328 23.5344L20.0016 21.7656L21.7716 23.5344C21.8862 23.6568 22.0243 23.755 22.1776 23.8229C22.3308 23.8909 22.4962 23.9273 22.6639 23.9301C22.8315 23.9328 22.998 23.9018 23.1535 23.8389C23.3089 23.7759 23.4501 23.6824 23.5686 23.5638C23.6871 23.4452 23.7806 23.3039 23.8434 23.1485C23.9062 22.993 23.9371 22.8265 23.9343 22.6588C23.9314 22.4912 23.8948 22.3258 23.8268 22.1726C23.7587 22.0193 23.6605 21.8814 23.538 21.7668L21.768 19.9992L23.5343 18.2329C23.7146 18.0571 23.8376 17.8311 23.8873 17.5843C23.9369 17.3375 23.9109 17.0814 23.8127 16.8497C23.7144 16.6179 23.5484 16.4212 23.3365 16.2853C23.1246 16.1494 22.8765 16.0807 22.6249 16.0881C22.3006 16.0981 21.9929 16.2338 21.7667 16.4665L20.0004 18.2329L18.2328 16.4665C18.1159 16.3463 17.976 16.2509 17.8214 16.1859C17.6669 16.1209 17.5008 16.0876 17.3331 16.0881ZM3.73202 27.4834C3.56776 27.4858 3.40558 27.5206 3.25477 27.5857C3.10395 27.6508 2.96744 27.745 2.85305 27.8629C2.73866 27.9808 2.64863 28.1201 2.58811 28.2729C2.52759 28.4256 2.49776 28.5887 2.50032 28.753V36.2494C2.50018 36.4136 2.5324 36.5763 2.59516 36.7281C2.65791 36.8799 2.74996 37.0178 2.86604 37.134C2.98213 37.2502 3.11998 37.3424 3.27171 37.4053C3.42344 37.4682 3.58608 37.5006 3.75033 37.5006H11.2516C11.5833 37.5006 11.9014 37.3689 12.1359 37.1343C12.3704 36.8998 12.5022 36.5817 12.5022 36.25C12.5022 35.9183 12.3704 35.6002 12.1359 35.3657C11.9014 35.1311 11.5833 34.9994 11.2516 34.9994H5.00033V28.753C5.00295 28.5856 4.97194 28.4195 4.90914 28.2644C4.84635 28.1092 4.75304 27.9683 4.63476 27.8499C4.51647 27.7315 4.37562 27.638 4.22055 27.5751C4.06549 27.5121 3.89936 27.481 3.73202 27.4834ZM36.2309 27.4834C36.0667 27.4858 35.9045 27.5206 35.7537 27.5857C35.6028 27.6508 35.4663 27.745 35.3519 27.8629C35.2376 27.9808 35.1475 28.1201 35.087 28.2729C35.0265 28.4256 34.9967 28.5887 34.9992 28.753V34.9994H28.7517C28.42 34.9994 28.1019 35.1311 27.8673 35.3657C27.6328 35.6002 27.501 35.9183 27.501 36.25C27.501 36.5817 27.6328 36.8998 27.8673 37.1343C28.1019 37.3689 28.42 37.5006 28.7517 37.5006H36.2492C36.4135 37.5006 36.5761 37.4682 36.7278 37.4053C36.8796 37.3424 37.0174 37.2502 37.1335 37.134C37.2496 37.0178 37.3416 36.8799 37.4044 36.7281C37.4671 36.5763 37.4994 36.4136 37.4992 36.2494V28.753C37.5018 28.5856 37.4708 28.4195 37.408 28.2644C37.3452 28.1092 37.2519 27.9683 37.1337 27.8499C37.0154 27.7315 36.8745 27.638 36.7194 27.5751C36.5644 27.5122 36.3983 27.481 36.2309 27.4834Z" fill="white" fill-opacity="0.7"/>
</svg>
