<svg width="33" height="32" viewBox="0 0 33 32" fill="none" xmlns="http://www.w3.org/2000/svg">
<path d="M12.2539 19.5435V22.3768" stroke="#D3F85A" stroke-width="1.0625" stroke-linecap="round" stroke-linejoin="round"/>
<path d="M10.8359 20.9575H13.6693" stroke="#D3F85A" stroke-width="1.0625" stroke-linecap="round" stroke-linejoin="round"/>
<path d="M20.043 9.62598V12.4593" stroke="#D3F85A" stroke-width="1.0625" stroke-linecap="round" stroke-linejoin="round"/>
<path d="M18.625 11.0425H21.4583" stroke="#D3F85A" stroke-width="1.0625" stroke-linecap="round" stroke-linejoin="round"/>
<path d="M12.6055 11.0425C12.6055 12.4117 13.7154 13.5216 15.0846 13.5216" stroke="#D3F85A" stroke-width="1.0625" stroke-linecap="round" stroke-linejoin="round"/>
<path d="M15.0846 13.5222C13.7154 13.5222 12.6055 14.6322 12.6055 16.0014" stroke="#D3F85A" stroke-width="1.0625" stroke-linecap="round" stroke-linejoin="round"/>
<path d="M12.6081 16.0014C12.6081 14.6322 11.4981 13.5222 10.1289 13.5222" stroke="#D3F85A" stroke-width="1.0625" stroke-linecap="round" stroke-linejoin="round"/>
<path d="M10.1289 13.5216C11.4981 13.5216 12.6081 12.4117 12.6081 11.0425" stroke="#D3F85A" stroke-width="1.0625" stroke-linecap="round" stroke-linejoin="round"/>
<path d="M16.2227 18.6772C18.0594 18.6772 19.5483 17.1883 19.5483 15.3516" stroke="#D3F85A" stroke-width="1.0625" stroke-linecap="round" stroke-linejoin="round"/>
<path d="M19.5508 15.3516C19.5508 17.1883 21.0397 18.6772 22.8764 18.6772" stroke="#D3F85A" stroke-width="1.0625" stroke-linecap="round" stroke-linejoin="round"/>
<path d="M22.8764 18.6748C21.0397 18.6748 19.5508 20.1637 19.5508 22.0004" stroke="#D3F85A" stroke-width="1.0625" stroke-linecap="round" stroke-linejoin="round"/>
<path d="M19.5522 22.0004C19.5522 20.1637 18.0633 18.6748 16.2266 18.6748" stroke="#D3F85A" stroke-width="1.0625" stroke-linecap="round" stroke-linejoin="round"/>
</svg>
