<svg aria-hidden="true" style="position: absolute; width: 0; height: 0; overflow: hidden;" version="1.1" xmlns="http://www.w3.org/2000/svg" xmlns:xlink="http://www.w3.org/1999/xlink">
<defs>
<symbol id="icon-burger" viewBox="0 0 36 32">
<path d="M34 28c0.51 0.001 1 0.196 1.371 0.546s0.594 0.828 0.624 1.337c0.030 0.509-0.136 1.010-0.463 1.401s-0.791 0.642-1.297 0.702l-0.234 0.014h-32c-0.51-0.001-1-0.196-1.371-0.546s-0.594-0.828-0.624-1.337c-0.030-0.509 0.136-1.010 0.463-1.401s0.791-0.642 1.297-0.702l0.234-0.014h32zM34 14c0.53 0 1.039 0.211 1.414 0.586s0.586 0.884 0.586 1.414c0 0.53-0.211 1.039-0.586 1.414s-0.884 0.586-1.414 0.586h-32c-0.53 0-1.039-0.211-1.414-0.586s-0.586-0.884-0.586-1.414c0-0.53 0.211-1.039 0.586-1.414s0.884-0.586 1.414-0.586h32zM34 0c0.53 0 1.039 0.211 1.414 0.586s0.586 0.884 0.586 1.414c0 0.53-0.211 1.039-0.586 1.414s-0.884 0.586-1.414 0.586h-32c-0.53 0-1.039-0.211-1.414-0.586s-0.586-0.884-0.586-1.414c0-0.53 0.211-1.039 0.586-1.414s0.884-0.586 1.414-0.586h32z"></path>
</symbol>
<symbol id="icon-logout" viewBox="0 0 32 32">
<path d="M5.333 0h9.739c1.292 0 2.53 0.513 3.443 1.426s1.426 2.152 1.426 3.443v6.493h-1.623v-6.493c0-0.861-0.342-1.687-0.951-2.296s-1.435-0.951-2.296-0.951h-9.739c-0.861 0-1.687 0.342-2.296 0.951s-0.951 1.435-0.951 2.296v21.102c0 0.861 0.342 1.687 0.951 2.296s1.435 0.951 2.296 0.951h9.739c0.861 0 1.687-0.342 2.296-0.951s0.951-1.435 0.951-2.296v-6.493h1.623v6.493c0 1.291-0.513 2.53-1.426 3.443s-2.152 1.426-3.443 1.426h-9.739c-1.292 0-2.53-0.513-3.443-1.426s-1.426-2.152-1.426-3.443v-21.102c0-1.292 0.513-2.53 1.426-3.443s2.152-1.426 3.443-1.426zM10.202 14.609h18.261l-5.275-5.275 1.071-1.217 7.304 7.304-7.304 7.304-1.071-1.217 5.275-5.275h-18.261v-1.623z"></path>
</symbol>
<symbol id="icon-open_eye" viewBox="0 0 46 32">
<path d="M22.856 10.286c-1.516 0-2.969 0.602-4.041 1.674s-1.674 2.525-1.674 4.041c0 1.516 0.602 2.969 1.674 4.041s2.525 1.674 4.041 1.674c1.515 0 2.969-0.602 4.041-1.674s1.674-2.525 1.674-4.041-0.602-2.969-1.674-4.041c-1.072-1.072-2.525-1.674-4.041-1.674zM22.856 25.524c-2.526 0-4.948-1.003-6.734-2.79s-2.789-4.208-2.789-6.734 1.003-4.948 2.789-6.734c1.786-1.786 4.208-2.789 6.734-2.789s4.948 1.003 6.734 2.789 2.789 4.208 2.789 6.734c0 2.526-1.003 4.948-2.789 6.734s-4.209 2.79-6.734 2.79zM22.856 1.714c-9.524 0-17.657 5.924-20.952 14.286 3.295 8.362 11.429 14.286 20.952 14.286s17.657-5.924 20.952-14.286c-3.295-8.362-11.429-14.286-20.952-14.286z"></path>
</symbol>
<symbol id="icon-untitled" viewBox="0 0 30 32">
<path fill="#000" style="fill: var(--color3, #000)" d="M15.864 30.136c-2.318 0-4.367-0.318-6.148-0.955-1.78-0.629-3.277-1.557-4.489-2.784s-2.129-2.731-2.75-4.511c-0.621-1.78-0.932-3.818-0.932-6.114 0-2.22 0.314-4.205 0.943-5.955 0.636-1.75 1.557-3.235 2.761-4.455 1.212-1.227 2.682-2.163 4.409-2.807 1.735-0.644 3.697-0.966 5.886-0.966 2.129 0 3.992 0.348 5.591 1.045 1.606 0.689 2.947 1.625 4.023 2.807 1.083 1.174 1.894 2.496 2.432 3.966 0.545 1.47 0.818 2.985 0.818 4.545 0 1.098-0.053 2.212-0.159 3.341s-0.33 2.167-0.67 3.114c-0.341 0.939-0.867 1.697-1.58 2.273-0.705 0.576-1.659 0.864-2.864 0.864-0.53 0-1.114-0.083-1.75-0.25s-1.201-0.443-1.693-0.829c-0.492-0.386-0.784-0.905-0.875-1.557h-0.136c-0.182 0.439-0.462 0.856-0.841 1.25-0.371 0.394-0.86 0.708-1.466 0.943-0.598 0.235-1.33 0.337-2.193 0.307-0.985-0.038-1.852-0.257-2.602-0.659-0.75-0.409-1.379-0.962-1.886-1.659-0.5-0.705-0.879-1.519-1.136-2.443-0.25-0.932-0.375-1.936-0.375-3.011 0-1.023 0.152-1.958 0.455-2.807s0.723-1.591 1.261-2.227c0.545-0.636 1.182-1.144 1.909-1.523 0.735-0.386 1.527-0.625 2.375-0.716 0.758-0.076 1.447-0.042 2.068 0.102 0.621 0.136 1.133 0.345 1.534 0.625 0.401 0.273 0.655 0.576 0.761 0.909h0.136v-1.273h2.409v10.273c0 0.636 0.178 1.197 0.534 1.682s0.875 0.727 1.557 0.727c0.773 0 1.364-0.265 1.773-0.795 0.417-0.53 0.701-1.348 0.852-2.454 0.159-1.106 0.239-2.523 0.239-4.25 0-1.015-0.14-2.015-0.42-3-0.273-0.992-0.689-1.92-1.25-2.784-0.553-0.864-1.254-1.625-2.102-2.284s-1.845-1.174-2.989-1.545c-1.136-0.379-2.428-0.568-3.875-0.568-1.78 0-3.375 0.276-4.784 0.83-1.402 0.545-2.595 1.345-3.58 2.398-0.977 1.045-1.723 2.318-2.239 3.818-0.508 1.492-0.761 3.189-0.761 5.091 0 1.932 0.254 3.648 0.761 5.148 0.515 1.5 1.273 2.765 2.273 3.795 1.008 1.030 2.254 1.811 3.739 2.341 1.485 0.538 3.197 0.807 5.136 0.807 0.833 0 1.655-0.080 2.466-0.239s1.526-0.333 2.148-0.523c0.621-0.189 1.068-0.33 1.341-0.42l0.636 2.091c-0.47 0.197-1.083 0.394-1.841 0.591-0.75 0.197-1.553 0.36-2.409 0.489-0.848 0.129-1.659 0.193-2.432 0.193zM14.545 21.091c1.015 0 1.837-0.205 2.466-0.614s1.087-1.026 1.375-1.852 0.432-1.867 0.432-3.125c0-1.273-0.159-2.265-0.477-2.977s-0.788-1.212-1.409-1.5c-0.621-0.288-1.386-0.432-2.295-0.432-0.864 0-1.602 0.227-2.216 0.682-0.606 0.447-1.072 1.045-1.398 1.795-0.318 0.742-0.477 1.553-0.477 2.432 0 0.97 0.129 1.883 0.386 2.739 0.258 0.848 0.678 1.538 1.261 2.068 0.583 0.523 1.367 0.784 2.352 0.784z"></path>
<path fill="#000" style="fill: var(--color3, #000)" opacity="0.24" d="M15.864 30.136c-2.318 0-4.367-0.318-6.148-0.955-1.78-0.629-3.277-1.557-4.489-2.784s-2.129-2.731-2.75-4.511c-0.621-1.78-0.932-3.818-0.932-6.114 0-2.22 0.314-4.205 0.943-5.955 0.636-1.75 1.557-3.235 2.761-4.455 1.212-1.227 2.682-2.163 4.409-2.807 1.735-0.644 3.697-0.966 5.886-0.966 2.129 0 3.992 0.348 5.591 1.045 1.606 0.689 2.947 1.625 4.023 2.807 1.083 1.174 1.894 2.496 2.432 3.966 0.545 1.47 0.818 2.985 0.818 4.545 0 1.098-0.053 2.212-0.159 3.341s-0.33 2.167-0.67 3.114c-0.341 0.939-0.867 1.697-1.58 2.273-0.705 0.576-1.659 0.864-2.864 0.864-0.53 0-1.114-0.083-1.75-0.25s-1.201-0.443-1.693-0.829c-0.492-0.386-0.784-0.905-0.875-1.557h-0.136c-0.182 0.439-0.462 0.856-0.841 1.25-0.371 0.394-0.86 0.708-1.466 0.943-0.598 0.235-1.33 0.337-2.193 0.307-0.985-0.038-1.852-0.257-2.602-0.659-0.75-0.409-1.379-0.962-1.886-1.659-0.5-0.705-0.879-1.519-1.136-2.443-0.25-0.932-0.375-1.936-0.375-3.011 0-1.023 0.152-1.958 0.455-2.807s0.723-1.591 1.261-2.227c0.545-0.636 1.182-1.144 1.909-1.523 0.735-0.386 1.527-0.625 2.375-0.716 0.758-0.076 1.447-0.042 2.068 0.102 0.621 0.136 1.133 0.345 1.534 0.625 0.401 0.273 0.655 0.576 0.761 0.909h0.136v-1.273h2.409v10.273c0 0.636 0.178 1.197 0.534 1.682s0.875 0.727 1.557 0.727c0.773 0 1.364-0.265 1.773-0.795 0.417-0.53 0.701-1.348 0.852-2.454 0.159-1.106 0.239-2.523 0.239-4.25 0-1.015-0.14-2.015-0.42-3-0.273-0.992-0.689-1.92-1.25-2.784-0.553-0.864-1.254-1.625-2.102-2.284s-1.845-1.174-2.989-1.545c-1.136-0.379-2.428-0.568-3.875-0.568-1.78 0-3.375 0.276-4.784 0.83-1.402 0.545-2.595 1.345-3.58 2.398-0.977 1.045-1.723 2.318-2.239 3.818-0.508 1.492-0.761 3.189-0.761 5.091 0 1.932 0.254 3.648 0.761 5.148 0.515 1.5 1.273 2.765 2.273 3.795 1.008 1.030 2.254 1.811 3.739 2.341 1.485 0.538 3.197 0.807 5.136 0.807 0.833 0 1.655-0.080 2.466-0.239s1.526-0.333 2.148-0.523c0.621-0.189 1.068-0.33 1.341-0.42l0.636 2.091c-0.47 0.197-1.083 0.394-1.841 0.591-0.75 0.197-1.553 0.36-2.409 0.489-0.848 0.129-1.659 0.193-2.432 0.193zM14.545 21.091c1.015 0 1.837-0.205 2.466-0.614s1.087-1.026 1.375-1.852 0.432-1.867 0.432-3.125c0-1.273-0.159-2.265-0.477-2.977s-0.788-1.212-1.409-1.5c-0.621-0.288-1.386-0.432-2.295-0.432-0.864 0-1.602 0.227-2.216 0.682-0.606 0.447-1.072 1.045-1.398 1.795-0.318 0.742-0.477 1.553-0.477 2.432 0 0.97 0.129 1.883 0.386 2.739 0.258 0.848 0.678 1.538 1.261 2.068 0.583 0.523 1.367 0.784 2.352 0.784z"></path>
</symbol>
<symbol id="icon-close_eye" viewBox="0 0 80 32">
<path stroke-linejoin="round" stroke-linecap="round" stroke-miterlimit="4" stroke-width="8" d="M6.668 5.333c0 0 11.667 13.333 33.333 13.333s33.334-13.333 33.334-13.333M13.335 10.817l-6.667 7.85M73.335 18.667l-6.654-7.84M29.715 17.6l-3.047 9.4M50.211 17.627l3.124 9.373"></path>
</symbol>
<symbol id="icon-load" viewBox="0 0 32 32">
<path d="M13.665 2.195c0.518-0.077 1.046 0.052 1.47 0.36s0.71 0.77 0.797 1.287c0.087 0.517-0.033 1.047-0.332 1.476s-0.756 0.724-1.271 0.821c-2.329 0.396-4.443 1.603-5.967 3.408s-2.361 4.091-2.361 6.454c0 2.652 1.054 5.196 2.929 7.071s4.419 2.929 7.071 2.929v4c-7.732 0-14-6.267-14-14 0-6.86 4.968-12.68 11.665-13.805z"></path>
<path fill="#000" style="fill: var(--color3, #000)" d="M22.523 5.731c0.175-0.196 0.388-0.355 0.624-0.468s0.494-0.179 0.756-0.194c0.262-0.014 0.525 0.023 0.773 0.111s0.476 0.223 0.672 0.398c1.466 1.312 2.638 2.918 3.439 4.714s1.215 3.741 1.213 5.708c0 7.733-6.268 14-14 14v-4c2.024 0 4.001-0.614 5.668-1.762s2.948-2.774 3.671-4.664c0.723-1.891 0.856-3.956 0.38-5.924s-1.537-3.744-3.044-5.096c-0.395-0.354-0.633-0.851-0.661-1.38s0.154-1.049 0.508-1.444z"></path>
</symbol>
<symbol id="icon-failed" viewBox="0 0 32 32">
<path fill="none" stroke="#c11e1e" style="stroke: var(--color4, #c11e1e)" stroke-linejoin="round" stroke-linecap="round" stroke-miterlimit="4" stroke-width="2.963" d="M11.556 10.074l8.889 11.852M20.444 10.074l-8.889 11.852M16 29.334c3.536 0 6.928-1.405 9.428-3.905s3.905-5.892 3.905-9.428c0-3.536-1.405-6.928-3.905-9.428s-5.892-3.905-9.428-3.905c-3.536 0-6.928 1.405-9.428 3.905s-3.905 5.892-3.905 9.428c0 3.536 1.405 6.928 3.905 9.428s5.892 3.905 9.428 3.905z"></path>
</symbol>
<symbol id="icon-cross" viewBox="0 0 32 32">
<path stroke-linejoin="round" stroke-linecap="round" stroke-miterlimit="4" stroke-width="4.5714" d="M29.714 2.286l-27.429 27.429M2.286 2.286l27.429 27.429"></path>
</symbol>
<symbol id="icon-done" viewBox="0 0 32 32">
<path fill="none" stroke-linejoin="miter" stroke-linecap="round" stroke-miterlimit="4" stroke-width="4" d="M3 21.375l6.466 4.85c0.413 0.309 0.929 0.448 1.441 0.385s0.98-0.32 1.307-0.719l16.786-20.516"></path>
</symbol>
<symbol id="icon-plus" viewBox="0 0 32 32">
<path fill="none" stroke-linejoin="round" stroke-linecap="round" stroke-miterlimit="4" stroke-width="1.8462" d="M16 30c7.732 0 14-6.268 14-14s-6.268-14-14-14c-7.732 0-14 6.268-14 14s6.268 14 14 14z"></path>
<path fill="none" stroke-linejoin="round" stroke-linecap="round" stroke-miterlimit="4" stroke-width="1.8462" d="M10 16h12"></path>
<path fill="none" stroke-linejoin="round" stroke-linecap="round" stroke-miterlimit="4" stroke-width="1.8462" d="M16 10v12"></path>
</symbol>
<symbol id="icon-question" viewBox="0 0 32 32">
<path d="M16 0c8.837 0 16 7.163 16 16s-7.163 16-16 16c-8.837 0-16-7.163-16-16s7.163-16 16-16zM16 22.4c-0.424 0-0.831 0.169-1.131 0.469s-0.469 0.707-0.469 1.131c0 0.424 0.169 0.831 0.469 1.131s0.707 0.469 1.131 0.469c0.424 0 0.831-0.169 1.131-0.469s0.469-0.707 0.469-1.131c0-0.424-0.169-0.831-0.469-1.131s-0.707-0.469-1.131-0.469zM16 7.2c-1.538 0-3.014 0.611-4.101 1.699s-1.699 2.563-1.699 4.101c0 0.424 0.169 0.831 0.469 1.131s0.707 0.469 1.131 0.469c0.424 0 0.831-0.169 1.131-0.469s0.469-0.707 0.469-1.131c0.001-0.472 0.13-0.935 0.373-1.339s0.593-0.735 1.010-0.955c0.417-0.221 0.886-0.324 1.358-0.299s0.927 0.179 1.317 0.443 0.702 0.631 0.901 1.059c0.199 0.428 0.277 0.902 0.227 1.371s-0.227 0.916-0.512 1.292c-0.285 0.376-0.667 0.668-1.105 0.844-1.082 0.432-2.568 1.539-2.568 3.384v0.4c0 0.424 0.169 0.831 0.469 1.131s0.707 0.469 1.131 0.469c0.424 0 0.831-0.169 1.131-0.469s0.469-0.707 0.469-1.131c0-0.39 0.080-0.586 0.418-0.752l0.139-0.064c1.249-0.503 2.285-1.424 2.929-2.607s0.857-2.552 0.602-3.874c-0.255-1.322-0.962-2.515-2-3.373s-2.342-1.328-3.688-1.33z"></path>
</symbol>
<symbol id="icon-trash" viewBox="0 0 32 32">
<path fill="none" stroke-linejoin="round" stroke-linecap="round" stroke-miterlimit="4" stroke-width="1.8462" d="M16 30c7.732 0 14-6.268 14-14s-6.268-14-14-14c-7.732 0-14 6.268-14 14s6.268 14 14 14z"></path>
<path d="M12.154 22.462c-0.423 0-0.785-0.151-1.086-0.452s-0.452-0.663-0.452-1.087v-10h-0.769v-1.538h3.846v-0.769h4.615v0.769h3.846v1.538h-0.769v10c0 0.423-0.151 0.785-0.452 1.087s-0.663 0.452-1.087 0.452h-7.692zM19.846 10.923h-7.692v10h7.692v-10zM13.692 19.385h1.538v-6.923h-1.538v6.923zM16.769 19.385h1.538v-6.923h-1.538v6.923z"></path>
</symbol>
<symbol id="icon-user" viewBox="0 0 32 32">
<path stroke-linejoin="miter" stroke-linecap="butt" stroke-miterlimit="4" stroke-width="0.7273" d="M31.636 16c0 8.636-7.001 15.636-15.636 15.636s-15.636-7.001-15.636-15.636c0-8.636 7.001-15.636 15.636-15.636s15.636 7.001 15.636 15.636z"></path>
<path stroke-linejoin="round" stroke-linecap="round" stroke-miterlimit="4" stroke-width="1.0909" d="M19.101 12.182c-0.134 1.802-1.5 3.273-3 3.273s-2.869-1.47-3-3.273c-0.136-1.875 1.193-3.273 3-3.273s3.136 1.432 3 3.273z"></path>
<path stroke-linejoin="miter" stroke-linecap="butt" stroke-miterlimit="10" stroke-width="1.0909" d="M16 17.636c-2.966 0-5.976 1.636-6.533 4.725-0.068 0.372 0.143 0.73 0.534 0.73h12c0.39 0 0.601-0.357 0.534-0.73-0.557-3.089-3.568-4.725-6.534-4.725z"></path>
</symbol>
<symbol id="icon-plus1" viewBox="0 0 32 32">
<path d="M14.667 2.667v12h-12v2.667h12v12h2.667v-12h12v-2.667h-12v-12z"></path>
</symbol>
<symbol id="icon-cross1" viewBox="0 0 32 32">
<path fill="none" stroke-linejoin="round" stroke-linecap="round" stroke-miterlimit="4" stroke-width="2.9091" d="M30.545 1.455l-29.091 29.091M1.455 1.455l29.091 29.091"></path>
</symbol>
<symbol id="icon-pencil" viewBox="0 0 32 32">
<path fill="none" stroke-linejoin="round" stroke-linecap="round" stroke-miterlimit="4" stroke-width="1.8462" d="M16 30c7.732 0 14-6.268 14-14s-6.268-14-14-14c-7.732 0-14 6.268-14 14s6.268 14 14 14z"></path>
<path d="M10.974 21.026h1.023l7.018-7.018-1.023-1.023-7.018 7.018v1.023zM9.538 22.462v-3.051l9.477-9.459c0.144-0.132 0.302-0.233 0.476-0.305s0.356-0.108 0.547-0.108c0.191 0 0.377 0.036 0.556 0.108s0.335 0.179 0.467 0.323l0.987 1.005c0.143 0.132 0.248 0.287 0.314 0.467s0.099 0.359 0.098 0.538c0 0.191-0.033 0.374-0.098 0.548s-0.17 0.332-0.314 0.475l-9.459 9.459h-3.051zM18.495 13.505l-0.503-0.521 1.023 1.023-0.52-0.503z"></path>
</symbol>
<symbol id="icon-chevron" viewBox="0 0 43 32">
<path d="M2.135 0.028h38.401c0.389 0.001 0.77 0.108 1.102 0.31s0.603 0.49 0.784 0.835c0.181 0.344 0.264 0.731 0.241 1.119s-0.151 0.763-0.371 1.083l-19.201 27.734c-0.796 1.15-2.712 1.15-3.509 0l-19.201-27.734c-0.222-0.32-0.353-0.695-0.377-1.083s0.058-0.777 0.239-1.122c0.181-0.345 0.453-0.634 0.786-0.835s0.716-0.307 1.105-0.307z"></path>
</symbol>
<symbol id="icon-images" viewBox="0 0 38 32">
<path stroke="none" d="M34.909 0h-26.182c-0.772 0-1.511 0.306-2.057 0.852s-0.852 1.286-0.852 2.057v2.909h-2.909c-0.772 0-1.511 0.306-2.057 0.852s-0.852 1.285-0.852 2.057v20.364c0 0.772 0.306 1.512 0.852 2.057s1.285 0.852 2.057 0.852h26.182c0.771 0 1.511-0.306 2.057-0.852s0.852-1.285 0.852-2.057v-2.909h2.909c0.772 0 1.511-0.306 2.057-0.852s0.852-1.285 0.852-2.057v-20.364c0-0.772-0.306-1.511-0.852-2.057s-1.286-0.852-2.057-0.852zM8.727 2.909h26.182v11.409l-1.831-1.829c-0.27-0.27-0.591-0.485-0.944-0.631s-0.731-0.222-1.113-0.222-0.76 0.075-1.113 0.222c-0.353 0.146-0.674 0.361-0.944 0.631l-3.636 3.636-8-8c-0.545-0.545-1.285-0.851-2.056-0.851s-1.511 0.306-2.056 0.851l-4.487 4.487v-9.704zM29.091 29.091h-26.182v-20.364h2.909v14.545c0 0.772 0.306 1.512 0.852 2.057s1.285 0.852 2.057 0.852h20.364v2.909zM34.909 23.273h-26.182v-6.545l6.545-6.545 9.029 9.029c0.273 0.273 0.643 0.426 1.028 0.426s0.755-0.153 1.028-0.426l4.665-4.665 3.885 3.887v4.84zM24.727 8c0-0.432 0.128-0.853 0.368-1.212s0.581-0.638 0.979-0.804c0.399-0.165 0.837-0.208 1.261-0.124s0.812 0.292 1.117 0.597c0.305 0.305 0.513 0.694 0.597 1.117s0.041 0.862-0.124 1.261c-0.165 0.399-0.445 0.739-0.803 0.979s-0.781 0.368-1.212 0.368c-0.579 0-1.134-0.23-1.543-0.639s-0.639-0.964-0.639-1.543z"></path>
</symbol>
<symbol id="icon-merge" viewBox="0 0 23 32">
<path d="M11.478 20.839l-6.789 6.789 2.264 2.261 4.525-4.523 4.525 4.523 2.264-2.262-6.789-6.787zM22.678 16c0 0.424-0.169 0.831-0.469 1.131s-0.707 0.469-1.131 0.469h-19.2c-0.424 0-0.831-0.169-1.131-0.469s-0.469-0.707-0.469-1.131c0-0.424 0.169-0.831 0.469-1.131s0.707-0.469 1.131-0.469h19.2c0.424 0 0.831 0.169 1.131 0.469s0.469 0.707 0.469 1.131zM11.478 11.162l6.789-6.789-2.264-2.262-4.525 4.525-4.525-4.525-2.264 2.262 6.789 6.789z"></path>
</symbol>
<symbol id="icon-search" viewBox="0 0 32 32">
<path fill="none" stroke-linejoin="round" stroke-linecap="round" stroke-miterlimit="4" stroke-width="2" d="M16 30c7.732 0 14-6.268 14-14s-6.268-14-14-14-14 6.268-14 14c0 7.732 6.268 14 14 14z"></path>
<path fill="none" stroke-linejoin="miter" stroke-linecap="round" stroke-miterlimit="4" stroke-width="1.7778" d="M23 23l-2.722-2.722M19.889 14.445c0 0.715-0.141 1.423-0.415 2.083s-0.675 1.261-1.18 1.766c-0.506 0.506-1.106 0.907-1.766 1.18s-1.369 0.414-2.084 0.414c-0.715 0-1.423-0.141-2.083-0.414s-1.261-0.675-1.766-1.18c-0.506-0.506-0.907-1.106-1.18-1.766s-0.414-1.369-0.414-2.083c0-1.444 0.574-2.829 1.595-3.85s2.406-1.595 3.85-1.595c1.444 0 2.829 0.574 3.85 1.595s1.595 2.406 1.595 3.85z"></path>
</symbol>
<symbol id="icon-dislike" viewBox="0 0 32 32">
<path d="M12.736 1.494c8.624 0 8.69 0.358 9.758 1.162 0.566 0.426 1.635 0.721 5.539 0.975 0.283 0.018 0.553 0.127 0.733 0.346 0.083 0.101 2.034 2.946 2.034 7.503 0 4.49-1.396 6.537-1.456 6.632-0.085 0.136-0.204 0.249-0.344 0.327s-0.299 0.119-0.46 0.119c-3.206 0-7.65 4.092-10.637 11.235-0.517 1.235-0.623 2.048-2.521 2.048-1.079 0-2.289-0.773-2.886-1.764-1.225-2.026-0.603-6.377-0.027-8.702-1.957 0.016-5.5 0.042-7.185 0.042-2.345 0-3.896-1.398-3.943-3.442-0.016-0.675 0.073-1.536 0.268-1.982-0.516-0.515-1.182-1.291-1.211-2.291-0.036-1.29 0.809-2.273 1.348-2.837-0.124-0.375-0.371-0.873-0.347-1.468 0.059-1.463 1.189-2.406 1.892-2.898-0.058-0.4-0.104-1.156 0.025-1.74 0.508-2.331 3.926-3.267 9.421-3.267l-0 0zM27.53 5.556c-3.401-0.281-5.219-0.662-6.177-1.384-0.742-0.559-0.628-0.78-8.617-0.78-2.437 0-7.202 0.102-7.568 1.774-0.145 0.669 0.56 1.326 0.563 1.332 0.193 0.475-0.022 1.033-0.492 1.239-0.008 0.004-1.902 0.682-1.945 1.741-0.028 0.677 0.436 1.084 0.447 1.101 0.277 0.429 0.176 1.017-0.244 1.309-0.005 0.004-1.232 0.748-1.202 1.762 0.023 0.806 1.085 1.373 1.117 1.391 0.237 0.136 0.41 0.371 0.464 0.639s-0.007 0.549-0.173 0.767c0 0-0.482 0.767-0.465 1.486 0.035 1.54 1.69 1.588 2.046 1.588 2.393 0 8.541-0.024 8.541-0.024 0.332-0.001 0.619 0.155 0.797 0.42s0.191 0.594 0.087 0.896c-0.927 2.67-1.445 6.858-0.585 8.289 0.253 0.422 0.311 0.843 1.26 0.843 0.131 0 0.444-0.104 0.771-0.882 3.171-7.586 7.906-11.974 11.785-12.37 0.334-0.763 0.964-2.344 0.964-5.212 0-2.928-0.927-5.193-1.373-5.926z"></path>
</symbol>
<symbol id="icon-download" viewBox="0 0 28 32">
<path d="M22.175 11.636h-2.878v-9.051c0-0.996-0.815-1.81-1.81-1.81h-7.24c-0.996 0-1.81 0.815-1.81 1.81v9.051h-2.878c-1.611 0-2.426 1.955-1.285 3.095l8.308 8.308c0.706 0.706 1.846 0.706 2.552 0l8.308-8.308c1.14-1.14 0.344-3.095-1.267-3.095zM1.196 29.737c0 0.996 0.815 1.81 1.81 1.81h21.721c0.996 0 1.81-0.814 1.81-1.81s-0.814-1.81-1.81-1.81h-21.721c-0.996 0-1.81 0.814-1.81 1.81z"></path>
</symbol>
<symbol id="icon-like" viewBox="0 0 32 32">
<path d="M19.264 31.628c-8.624 0-8.69-0.358-9.758-1.162-0.566-0.426-1.635-0.721-5.539-0.976-0.283-0.018-0.553-0.127-0.733-0.346-0.083-0.101-2.034-2.946-2.034-7.503 0-4.49 1.396-6.537 1.456-6.632 0.085-0.136 0.204-0.249 0.344-0.327s0.299-0.119 0.46-0.119c3.206 0 7.65-4.092 10.637-11.235 0.517-1.235 0.623-2.048 2.521-2.048 1.079 0 2.289 0.773 2.886 1.764 1.226 2.026 0.603 6.377 0.028 8.702 1.957-0.016 5.499-0.042 7.185-0.042 2.345 0 3.896 1.398 3.943 3.442 0.016 0.675-0.073 1.536-0.268 1.982 0.516 0.515 1.182 1.291 1.211 2.291 0.036 1.29-0.809 2.273-1.348 2.837 0.124 0.375 0.372 0.873 0.347 1.468-0.059 1.463-1.189 2.406-1.893 2.898 0.058 0.4 0.104 1.156-0.025 1.74-0.508 2.331-3.926 3.267-9.421 3.267v-0zM4.47 27.567c3.401 0.281 5.219 0.662 6.177 1.384 0.742 0.559 0.628 0.78 8.617 0.78 2.437 0 7.202-0.102 7.567-1.774 0.145-0.669-0.56-1.326-0.563-1.332-0.193-0.475 0.022-1.033 0.492-1.239 0.008-0.004 1.902-0.682 1.945-1.741 0.028-0.677-0.437-1.084-0.447-1.101-0.277-0.429-0.175-1.017 0.244-1.309 0.005-0.004 1.232-0.748 1.202-1.762-0.023-0.806-1.084-1.372-1.117-1.392-0.237-0.136-0.41-0.371-0.464-0.639s0.007-0.549 0.173-0.767c0 0 0.483-0.767 0.465-1.486-0.035-1.54-1.69-1.588-2.046-1.588-2.393 0-8.54 0.024-8.54 0.024-0.332 0.001-0.619-0.155-0.797-0.42s-0.191-0.594-0.087-0.896c0.927-2.67 1.445-6.858 0.585-8.289-0.253-0.422-0.311-0.843-1.26-0.843-0.131 0-0.445 0.104-0.771 0.882-3.171 7.586-7.906 11.974-11.785 12.37-0.334 0.763-0.964 2.344-0.964 5.212 0 2.928 0.927 5.193 1.373 5.926z"></path>
</symbol>
<symbol id="icon-ready" viewBox="0 0 30 32">
<path d="M3.048 27.429h22.857c1.048 0 1.905 0.857 1.905 1.905s-0.857 1.905-1.905 1.905h-22.857c-1.048 0-1.905-0.857-1.905-1.905s0.857-1.905 1.905-1.905zM12.59 19.619c-0.716 0.707-1.683 1.102-2.69 1.098s-1.971-0.405-2.682-1.117l-4.171-4.171c-1.048-1.048-1.029-2.743 0.057-3.752 1.029-0.99 2.667-0.952 3.657 0.038l3.143 3.143 12.248-12.248c1.029-1.029 2.686-1.029 3.714 0l0.076 0.076c1.029 1.029 1.029 2.705-0.019 3.733l-13.333 13.2z"></path>
</symbol>
<symbol id="icon-reload" viewBox="0 0 32 32">
<path d="M17.53 31.91c6.419-0.719 11.564-5.85 12.296-12.27 0.961-8.393-5.563-15.538-13.74-15.63v-3.765c0-0.209-0.261-0.32-0.438-0.19l-7.753 5.694c-0.131 0.098-0.131 0.288 0 0.386l7.753 5.694c0.177 0.131 0.438 0.013 0.438-0.19v-3.759c5.746 0.092 10.348 4.981 9.956 10.825-0.333 5.027-4.432 9.106-9.459 9.426-5.328 0.34-9.858-3.465-10.668-8.498-0.15-0.935-0.967-1.615-1.909-1.615-1.17 0-2.085 1.039-1.902 2.196 1.137 7.171 7.759 12.551 15.427 11.694z"></path>
</symbol>
<symbol id="icon-chevron_v" viewBox="0 0 15 32">
<path d="M0.388 3.524l11.35 11.532c0.249 0.252 0.389 0.591 0.389 0.945s-0.14 0.694-0.389 0.945l-11.347 11.532c-0.249 0.253-0.388 0.594-0.388 0.949s0.139 0.696 0.388 0.949c0.122 0.125 0.267 0.224 0.427 0.291s0.333 0.102 0.507 0.102 0.346-0.035 0.507-0.102c0.16-0.068 0.306-0.167 0.427-0.291l11.347-11.529c0.746-0.759 1.163-1.781 1.163-2.845s-0.418-2.086-1.163-2.845l-11.347-11.529c-0.122-0.125-0.267-0.224-0.428-0.292s-0.333-0.103-0.508-0.103c-0.174 0-0.347 0.035-0.508 0.103s-0.306 0.167-0.428 0.292c-0.249 0.253-0.388 0.594-0.388 0.949s0.139 0.696 0.388 0.949z"></path>
</symbol>
</defs>
</svg>
