<svg width="33" height="24" viewBox="0 0 33 24" fill="none" xmlns="http://www.w3.org/2000/svg">
<g clip-path="url(#clip0_11528_132296)">
<path d="M7.11437 0C7.11437 0 7.17058 0.110057 7.27176 0.314991C7.36545 0.519924 7.5191 0.815939 7.70273 1.18786C8.08872 1.9203 8.74079 2.89184 9.58398 3.9241C10.4159 4.96774 11.6264 5.95446 12.9905 6.72865C14.3621 7.51044 15.9735 7.96584 17.6037 8.22391C19.2488 8.47818 20.9352 8.28084 22.4342 7.83302C23.9369 7.39279 25.3348 6.71347 26.3841 5.88994C27.4334 5.0778 28.2916 4.28463 28.8312 3.66224C29.0935 3.34345 29.3109 3.09298 29.4495 2.91461C29.5957 2.74004 29.6744 2.64516 29.6744 2.64516C29.6744 2.64516 29.6556 2.7666 29.6069 2.99051C29.5657 3.21822 29.472 3.54459 29.3296 3.95825C29.0336 4.76281 28.5426 5.96584 27.5271 7.11575C26.5302 8.25806 25.1586 9.51803 23.3336 10.3112C21.5198 11.1082 19.3612 11.4459 17.2626 11.203C15.164 10.9564 13.1366 10.1252 11.5552 8.92979C9.96248 7.73435 8.90943 6.18975 8.19365 4.85009C7.46663 3.49526 7.25677 2.20873 7.15184 1.35863C7.10687 0.922201 7.08814 0.58444 7.09938 0.352941C7.10687 0.121442 7.11062 0 7.11062 0L7.11437 0Z" fill="url(#paint0_linear_11528_132296)"/>
<path d="M0.166504 23.5713C0.166504 23.5713 0.203979 23.5713 0.278929 23.5713C0.353879 23.5713 0.462557 23.5826 0.604963 23.5713C0.886026 23.5675 1.302 23.5333 1.79667 23.4119C2.79351 23.1804 4.06392 22.4555 5.2144 21.2449C5.80276 20.6415 6.3499 19.8825 6.88204 19.0286C7.41794 18.1747 7.94634 17.2145 8.59091 16.2202C9.23923 15.2259 9.95875 14.1785 10.9631 13.2069C11.4765 12.725 12.0649 12.2658 12.7919 11.9204C13.5076 11.575 14.407 11.3625 15.3027 11.465C16.1946 11.5523 16.9928 11.9166 17.6262 12.3265C18.267 12.7401 18.7766 13.2107 19.2376 13.6623C19.6985 14.1177 20.0958 14.5504 20.4855 14.9451C20.879 15.3473 21.2762 15.7306 21.6697 16.1026C23.2399 17.5788 24.8589 18.7857 26.4441 19.4157C28.018 20.0532 29.4645 20.3568 30.5064 20.3796C31.0273 20.3986 31.4432 20.3682 31.728 20.353C32.0166 20.3265 32.1665 20.3151 32.1665 20.3151C32.1665 20.3151 32.0278 20.3872 31.773 20.5238C31.5069 20.6453 31.1097 20.8236 30.5738 20.9602C30.0417 21.1007 29.3709 21.2373 28.5839 21.2752C27.8007 21.3132 26.9013 21.2525 25.9494 21.0248C24.0494 20.5807 21.9096 19.613 20.0021 18.1329C19.5224 17.7648 19.054 17.3739 18.5968 16.964C18.1321 16.5504 17.6974 16.1253 17.2889 15.7572C16.8767 15.3853 16.4757 15.0589 16.0934 14.8312C15.7074 14.5997 15.3664 14.4745 15.0479 14.4517C14.7368 14.4214 14.407 14.4821 14.0285 14.6453C13.6538 14.8122 13.2603 15.0741 12.8818 15.3929C12.1136 16.0494 11.3866 16.8957 10.7045 17.761C10.015 18.6301 9.32542 19.5257 8.59466 20.3454C7.86389 21.1652 7.09565 21.909 6.30493 22.5124C5.51795 23.1158 4.66726 23.5333 3.89153 23.7458C3.1158 23.9697 2.41126 24.0153 1.84914 23.9849C1.28326 23.9621 0.856046 23.8407 0.57873 23.742C0.440072 23.6965 0.338889 23.6434 0.267687 23.613C0.200232 23.5826 0.166504 23.5637 0.166504 23.5637L0.166504 23.5713Z" fill="#D3F85A"/>
<path d="M18.9795 3.49562C18.9795 4.88462 17.8664 6.01175 16.4949 6.01175C15.1233 6.01175 14.0103 4.88462 14.0103 3.49562C14.0103 2.10663 15.1233 0.979492 16.4949 0.979492C17.8664 0.979492 18.9795 2.10663 18.9795 3.49562Z" fill="#D3F85A"/>
</g>
<defs>
<linearGradient id="paint0_linear_11528_132296" x1="-2.0483" y1="5.48767" x2="23.1463" y2="5.7393" gradientUnits="userSpaceOnUse">
<stop stop-color="#1F878A"/>
<stop offset="0.47" stop-color="#16D8D8"/>
<stop offset="0.57" stop-color="#16D0D1"/>
<stop offset="0.71" stop-color="#18BDBE"/>
<stop offset="0.87" stop-color="#1C9D9F"/>
<stop offset="1" stop-color="#207F82"/>
</linearGradient>
<clipPath id="clip0_11528_132296">
<rect width="32" height="24" fill="white" transform="translate(0.166504)"/>
</clipPath>
</defs>
</svg>
