<svg width="25" height="24" viewBox="0 0 25 24" fill="none" xmlns="http://www.w3.org/2000/svg">
<rect x="1.28078" y="0.48" width="23.04" height="23.04" rx="11.52" stroke="#C7CED1" stroke-width="0.96"/>
<path d="M7.90039 8.85044C7.90039 8.75762 7.93727 8.66859 8.0029 8.60295C8.06854 8.53732 8.15756 8.50044 8.25039 8.50044H9.40749C10.1075 8.50044 10.7739 8.80004 11.2387 9.32294L12.7857 11.0631C12.9498 11.2478 13.1512 11.3956 13.3766 11.4968C13.602 11.598 13.8462 11.6504 14.0933 11.6504H17.2055L14.6526 9.09824C14.5869 9.03252 14.5499 8.94339 14.5499 8.85044C14.5499 8.7575 14.5869 8.66836 14.6526 8.60264C14.7183 8.53692 14.8074 8.5 14.9004 8.5C14.9933 8.5 15.0825 8.53692 15.1482 8.60264L18.2982 11.7526C18.3308 11.7852 18.3566 11.8238 18.3743 11.8663C18.3919 11.9088 18.401 11.9544 18.401 12.0004C18.401 12.0465 18.3919 12.0921 18.3743 12.1346C18.3566 12.1771 18.3308 12.2157 18.2982 12.2482L15.1482 15.3982C15.0825 15.464 14.9933 15.5009 14.9004 15.5009C14.8074 15.5009 14.7183 15.464 14.6526 15.3982C14.5869 15.3325 14.5499 15.2434 14.5499 15.1504C14.5499 15.0575 14.5869 14.9684 14.6526 14.9026L17.2055 12.3504H14.0933C13.8462 12.3506 13.6019 12.403 13.3765 12.5044C13.1511 12.6057 12.9498 12.7537 12.7857 12.9384L11.2387 14.6779C11.0088 14.9366 10.7268 15.1436 10.4112 15.2854C10.0956 15.4271 9.75349 15.5004 9.40749 15.5004H8.25039C8.15756 15.5004 8.06854 15.4636 8.0029 15.3979C7.93727 15.3323 7.90039 15.2433 7.90039 15.1504C7.90039 15.0576 7.93727 14.9686 8.0029 14.903C8.06854 14.8373 8.15756 14.8004 8.25039 14.8004H9.40749C9.65461 14.8003 9.89889 14.7478 10.1243 14.6465C10.3496 14.5452 10.551 14.3972 10.7151 14.2124L12.2621 12.4729C12.4287 12.2853 12.6212 12.1271 12.8312 12.0004C12.6212 11.8744 12.4287 11.7155 12.2621 11.5279L10.7151 9.78844C10.551 9.60367 10.3496 9.45574 10.1243 9.35439C9.89889 9.25304 9.65461 9.20057 9.40749 9.20044H8.25039C8.15756 9.20044 8.06854 9.16357 8.0029 9.09793C7.93727 9.03229 7.90039 8.94327 7.90039 8.85044Z" fill="#F1F1F1"/>
</svg>
