<svg width="18" height="18" viewBox="0 0 18 18" fill="none" xmlns="http://www.w3.org/2000/svg">
<path d="M8.94297 11.1168L5.97287 14.0869L6.96337 15.076L8.94297 13.0971L10.9226 15.076L11.9131 14.0862L8.94297 11.1168ZM13.843 8.99999C13.843 9.18564 13.7692 9.36369 13.6379 9.49496C13.5067 9.62624 13.3286 9.69999 13.143 9.69999L4.74297 9.69999C4.55732 9.69999 4.37927 9.62624 4.24799 9.49496C4.11672 9.36369 4.04297 9.18564 4.04297 8.99999C4.04297 8.81434 4.11672 8.63629 4.24799 8.50501C4.37927 8.37374 4.55732 8.29999 4.74297 8.29999L13.143 8.29999C13.3286 8.29999 13.5067 8.37374 13.6379 8.50501C13.7692 8.63629 13.843 8.81434 13.843 8.99999ZM8.94297 6.88319L11.9131 3.91309L10.9226 2.92329L8.94297 4.90289L6.96337 2.92329L5.97287 3.91309L8.94297 6.88319Z" fill="#F1F1F1"/>
</svg>
