<svg width="51" height="51" viewBox="0 0 51 51" fill="none" xmlns="http://www.w3.org/2000/svg">
<g id="cloud-computing 1" clip-path="url(#clip0_9964_113810)">
<g id="Group">
<g id="Group_2">
<path id="Vector" d="M39.8808 44.0356H31.7348H29.5413H29.0676V33.1091H32.6411C33.5473 33.1091 34.0828 32.0793 33.5473 31.3378L26.596 21.7191C26.1531 21.1012 25.2366 21.1012 24.7937 21.7191L17.8424 31.3378C17.3069 32.0793 17.8321 33.1091 18.7486 33.1091H22.3222V44.0356H21.8484H19.6549H10.2113C4.8047 43.737 0.5 38.6805 0.5 33.2018C0.5 29.4223 2.54937 26.1268 5.58737 24.3452C5.30932 23.5934 5.16514 22.7902 5.16514 21.9457C5.16514 18.0838 8.28553 14.9634 12.1474 14.9634C12.9816 14.9634 13.7848 15.1076 14.5366 15.3857C16.7714 10.6484 21.591 7.36328 27.1933 7.36328C34.4433 7.37358 40.4163 12.9244 41.096 19.9993C46.6674 20.9571 50.9 26.1165 50.9 31.9557C50.9 38.1965 46.0392 43.6031 39.8808 44.0356Z" fill="#FE78FE"/>
</g>
</g>
</g>
<defs>
<clipPath id="clip0_9964_113810">
<rect width="50.4" height="50.4" fill="white" transform="translate(0.5 0.5)"/>
</clipPath>
</defs>
</svg>
