<svg width="26" height="26" viewBox="0 0 26 26" fill="none" xmlns="http://www.w3.org/2000/svg">
<g clip-path="url(#clip0_17467_265380)">
<path d="M6.33878 17.3799C6.41886 17.4599 6.52384 17.5 6.62882 17.5C6.7338 17.5 6.83876 17.4599 6.91887 17.3799L13.8548 10.444C13.9096 10.7125 13.9374 10.9967 13.9374 11.2945C13.9374 11.3854 13.9676 11.4738 14.0233 11.5457C14.4426 12.0869 14.7506 12.5437 14.9384 12.9032C15.0009 13.0226 14.953 13.1256 14.9295 13.1643C14.9056 13.2039 14.8349 13.2959 14.6966 13.2959C14.3119 13.2959 13.9972 13.5849 13.9644 13.9682L13.8758 15.0044C13.8422 15.3983 13.5187 15.6953 13.1234 15.6953H12.7778C12.4484 15.6953 12.1388 15.8238 11.9063 16.0572C11.6737 16.2905 11.5462 16.6004 11.5473 16.9299L11.5479 17.0912C11.5486 17.3173 11.7321 17.5 11.958 17.5H11.9594C12.1859 17.4992 12.3689 17.315 12.3682 17.0885L12.3677 16.9271C12.3673 16.8173 12.4098 16.714 12.4873 16.6362C12.5648 16.5584 12.668 16.5156 12.7778 16.5156H13.1234C13.5191 16.5156 13.8975 16.3682 14.1889 16.1006C14.4804 15.833 14.6595 15.4685 14.6932 15.0743L14.7753 14.1134C15.1292 14.0886 15.4451 13.8966 15.6312 13.5894C15.83 13.2611 15.8428 12.8626 15.6655 12.5233C15.4655 12.1407 15.1675 11.6914 14.7559 11.1526C14.7433 10.6626 14.6655 10.2006 14.524 9.77476L16.5986 7.7002C16.7588 7.54001 16.7588 7.28032 16.5986 7.12016C16.4384 6.95999 16.1787 6.95997 16.0185 7.12016L6.33878 16.7998C6.17859 16.96 6.17859 17.2197 6.33878 17.3799ZM12.8344 8.62655C12.2421 8.09159 11.4445 7.82033 10.4638 7.82033C8.35127 7.82033 7.03896 9.17979 7.03896 11.3682C7.03896 11.9095 7.22807 12.2126 7.4675 12.5964C7.67346 12.9265 7.90692 13.3007 8.01851 13.85C8.0636 14.072 7.92021 14.2885 7.69823 14.3336C7.67067 14.3392 7.64319 14.3419 7.61614 14.3419C7.42515 14.3419 7.25413 14.2077 7.21461 14.0133C7.13252 13.6092 6.95716 13.3281 6.77152 13.0305C6.51236 12.6152 6.21866 12.1444 6.21866 11.3682C6.21866 8.71459 7.88498 7 10.4638 7C11.6539 7 12.6365 7.34242 13.3843 8.01776C13.5524 8.16958 13.5656 8.42894 13.4137 8.59706C13.2618 8.76525 13.0025 8.77835 12.8344 8.62655Z" fill="white"/>
<path d="M15.9668 14.3672C16.294 14.3672 16.5594 14.6327 16.5596 14.96V16.3145C16.5906 16.3091 16.6227 16.3076 16.6553 16.3076C16.8473 16.3076 17.0168 16.4044 17.1172 16.5518C17.1822 16.5263 17.2532 16.5127 17.3271 16.5127C17.5559 16.5127 17.7519 16.6468 17.8447 16.8398C17.8886 16.8284 17.9341 16.8213 17.9814 16.8213C18.2803 16.8213 18.5225 17.0634 18.5225 17.3623V18.6309C18.5225 18.8087 18.4684 18.9826 18.3672 19.1289L18.2168 19.3457C18.1802 19.3986 18.1565 19.4547 18.1475 19.5264C18.2671 19.5352 18.3613 19.6349 18.3613 19.7568V20.4014C18.3613 20.5291 18.2575 20.6328 18.1299 20.6328C18.0024 20.6326 17.8994 20.5289 17.8994 20.4014V19.9873H15.46V20.4014C15.4599 20.5291 15.3562 20.6328 15.2285 20.6328C15.1011 20.6326 14.9981 20.5289 14.998 20.4014V19.7568C14.998 19.6487 15.0729 19.5693 15.1748 19.5391L15.1396 19.4414C15.1197 19.3871 15.0875 19.3353 15.0449 19.2891C14.9438 19.1794 14.7688 18.978 14.6299 18.79L14.625 18.7842V18.7832C14.4685 18.5107 14.3919 18.2089 14.3535 17.9834C14.3341 17.8694 14.3237 17.7714 14.3184 17.7012C14.3156 17.6654 14.3133 17.6068 14.3125 17.5879V17.5859C14.3112 17.4601 14.412 17.3513 14.541 17.3496C14.668 17.3482 14.773 17.4494 14.7754 17.5762L14.7803 17.666C14.7848 17.7248 14.793 17.8087 14.8096 17.9062C14.8428 18.1015 14.9064 18.3386 15.0215 18.543C15.1441 18.7073 15.2904 18.8733 15.3848 18.9756C15.4652 19.0628 15.5316 19.1662 15.5742 19.2822L15.6631 19.5254H17.6865C17.6979 19.3579 17.7477 19.212 17.8369 19.083L17.9873 18.8662C18.035 18.7971 18.0605 18.7148 18.0605 18.6309V17.3623C18.0605 17.3188 18.025 17.2832 17.9814 17.2832C17.9628 17.2832 17.9464 17.2905 17.9326 17.3086C17.9175 17.3287 17.9023 17.3667 17.9023 17.4287C17.9023 17.5562 17.7994 17.66 17.6719 17.6602C17.5442 17.6602 17.4405 17.5564 17.4404 17.4287V17.0879C17.4402 17.0256 17.3895 16.9756 17.3271 16.9756C17.2648 16.9756 17.2141 17.0256 17.2139 17.0879V17.292C17.2137 17.4195 17.11 17.5225 16.9824 17.5225C16.855 17.5223 16.7521 17.4194 16.752 17.292V16.8662C16.752 16.8132 16.7083 16.7695 16.6553 16.7695C16.6024 16.7697 16.5596 16.8133 16.5596 16.8662V17.2236C16.5594 17.3511 16.4557 17.4541 16.3281 17.4541C16.2007 17.454 16.0969 17.351 16.0967 17.2236V14.96C16.0965 14.8881 16.0387 14.8301 15.9668 14.8301C15.8949 14.8301 15.8361 14.8881 15.8359 14.96V17.6523C15.8359 17.789 15.8046 17.9238 15.7432 18.0459L15.708 18.1143C15.6506 18.2283 15.5115 18.2742 15.3975 18.2168C15.2839 18.1594 15.238 18.021 15.2949 17.9072L15.3301 17.8379C15.359 17.7803 15.374 17.7168 15.374 17.6523V14.96C15.3742 14.6327 15.6395 14.3672 15.9668 14.3672Z" fill="white" stroke="white" stroke-width="0.14"/>
</g>
<defs>
<clipPath id="clip0_17467_265380">
<rect width="14" height="14" fill="white" transform="translate(6.21875 7)"/>
</clipPath>
</defs>
</svg>
