<svg width="24" height="25" viewBox="0 0 24 25" fill="none" xmlns="http://www.w3.org/2000/svg">
<path d="M4.39731 16.7645L11.4248 9.84802C11.5781 9.69632 11.7851 9.61124 12.0008 9.61124C12.2165 9.61124 12.4235 9.69632 12.5768 9.84802L19.6043 16.763C19.7586 16.9146 19.9663 16.9996 20.1826 16.9996C20.3989 16.9996 20.6065 16.9146 20.7608 16.763C20.8368 16.689 20.8972 16.6004 20.9384 16.5027C20.9796 16.4049 21.0009 16.2999 21.0009 16.1938C21.0009 16.0877 20.9796 15.9826 20.9384 15.8849C20.8972 15.7871 20.8368 15.6986 20.7608 15.6245L13.7348 8.70952C13.272 8.25513 12.6494 8.00055 12.0008 8.00055C11.3522 8.00055 10.7296 8.25513 10.2668 8.70952L3.24081 15.6245C3.16461 15.6986 3.10404 15.7872 3.06267 15.8851C3.02131 15.983 3 16.0882 3 16.1945C3 16.3008 3.02131 16.406 3.06267 16.5039C3.10404 16.6018 3.16461 16.6904 3.24081 16.7645C3.39509 16.9161 3.60275 17.0011 3.81906 17.0011C4.03537 17.0011 4.24303 16.9161 4.39731 16.7645Z" fill="#C7CED1"/>
</svg>
