<svg width="24" height="24" viewBox="0 0 24 24" fill="none" xmlns="http://www.w3.org/2000/svg">
<path d="M21.9209 11.62C21.8733 11.4972 21.8019 11.3851 21.7109 11.29L19.2109 8.79C19.0226 8.6017 18.7672 8.49591 18.5009 8.49591C18.2346 8.49591 17.9792 8.6017 17.7909 8.79C17.6026 8.9783 17.4968 9.2337 17.4968 9.5C17.4968 9.7663 17.6026 10.0217 17.7909 10.21L18.5909 11H13.0009V8C13.0009 7.73478 12.8955 7.48043 12.708 7.29289C12.5204 7.10536 12.2661 7 12.0009 7C11.7357 7 11.4813 7.10536 11.2938 7.29289C11.1062 7.48043 11.0009 7.73478 11.0009 8V11H5.41087L6.21087 10.21C6.39918 10.0217 6.50496 9.7663 6.50496 9.5C6.50496 9.2337 6.39918 8.9783 6.21087 8.79C6.02257 8.6017 5.76717 8.49591 5.50087 8.49591C5.23457 8.49591 4.97918 8.6017 4.79087 8.79L2.29087 11.29C2.19983 11.3851 2.12847 11.4972 2.08087 11.62C1.98085 11.8635 1.98085 12.1365 2.08087 12.38C2.12847 12.5028 2.19983 12.6149 2.29087 12.71L4.79087 15.21C4.88384 15.3037 4.99444 15.3781 5.1163 15.4289C5.23816 15.4797 5.36886 15.5058 5.50087 15.5058C5.63288 15.5058 5.76359 15.4797 5.88545 15.4289C6.00731 15.3781 6.11791 15.3037 6.21087 15.21C6.3046 15.117 6.379 15.0064 6.42976 14.8846C6.48053 14.7627 6.50667 14.632 6.50667 14.5C6.50667 14.368 6.48053 14.2373 6.42976 14.1154C6.379 13.9936 6.3046 13.883 6.21087 13.79L5.41087 13H11.0009V16C11.0009 16.2652 11.1062 16.5196 11.2938 16.7071C11.4813 16.8946 11.7357 17 12.0009 17C12.2661 17 12.5204 16.8946 12.708 16.7071C12.8955 16.5196 13.0009 16.2652 13.0009 16V13H18.5909L17.7909 13.79C17.6971 13.883 17.6227 13.9936 17.572 14.1154C17.5212 14.2373 17.4951 14.368 17.4951 14.5C17.4951 14.632 17.5212 14.7627 17.572 14.8846C17.6227 15.0064 17.6971 15.117 17.7909 15.21C17.8838 15.3037 17.9944 15.3781 18.1163 15.4289C18.2382 15.4797 18.3689 15.5058 18.5009 15.5058C18.6329 15.5058 18.7636 15.4797 18.8855 15.4289C19.0073 15.3781 19.1179 15.3037 19.2109 15.21L21.7109 12.71C21.8019 12.6149 21.8733 12.5028 21.9209 12.38C22.0209 12.1365 22.0209 11.8635 21.9209 11.62Z" fill="#9FA6A9"/>
</svg>
