<svg width="15" height="16" viewBox="0 0 15 16" fill="none" xmlns="http://www.w3.org/2000/svg">
<path d="M7.93182 15.0682C6.77273 15.0682 5.74811 14.9091 4.85795 14.5909C3.9678 14.2765 3.2197 13.8125 2.61364 13.1989C2.00758 12.5852 1.54924 11.8333 1.23864 10.9432C0.92803 10.053 0.772727 9.03409 0.772727 7.88636C0.772727 6.77651 0.929924 5.78409 1.24432 4.90909C1.5625 4.03409 2.02273 3.29167 2.625 2.68182C3.23106 2.06818 3.96591 1.60038 4.82955 1.27841C5.69697 0.956439 6.67803 0.795454 7.77273 0.795454C8.83712 0.795454 9.76894 0.969696 10.5682 1.31818C11.3712 1.66288 12.0417 2.13068 12.5795 2.72159C13.1212 3.30871 13.5265 3.9697 13.7955 4.70455C14.0682 5.43939 14.2045 6.19697 14.2045 6.97727C14.2045 7.52651 14.178 8.08333 14.125 8.64773C14.072 9.21212 13.9602 9.73106 13.7898 10.2045C13.6193 10.6742 13.3561 11.053 13 11.3409C12.6477 11.6288 12.1705 11.7727 11.5682 11.7727C11.303 11.7727 11.0114 11.7311 10.6932 11.6477C10.375 11.5644 10.0928 11.4261 9.84659 11.233C9.60038 11.0398 9.45455 10.7803 9.40909 10.4545H9.34091C9.25 10.6742 9.10985 10.8826 8.92045 11.0795C8.73485 11.2765 8.49053 11.4337 8.1875 11.5511C7.88826 11.6686 7.52273 11.7197 7.09091 11.7045C6.59849 11.6856 6.16477 11.5758 5.78977 11.375C5.41477 11.1705 5.10038 10.8939 4.84659 10.5455C4.59659 10.1932 4.4072 9.78598 4.27841 9.32386C4.15341 8.85795 4.09091 8.35606 4.09091 7.81818C4.09091 7.30682 4.16667 6.83901 4.31818 6.41477C4.4697 5.99053 4.67992 5.61932 4.94886 5.30114C5.22159 4.98295 5.53977 4.72917 5.90341 4.53977C6.27083 4.34659 6.66667 4.22727 7.09091 4.18182C7.4697 4.14394 7.81439 4.16098 8.125 4.23295C8.43561 4.30114 8.69129 4.4053 8.89205 4.54545C9.0928 4.68182 9.2197 4.83333 9.27273 5H9.34091V4.36364H10.5455V9.5C10.5455 9.81818 10.6345 10.0985 10.8125 10.3409C10.9905 10.5833 11.25 10.7045 11.5909 10.7045C11.9773 10.7045 12.2727 10.572 12.4773 10.3068C12.6856 10.0417 12.8277 9.63258 12.9034 9.07955C12.983 8.52652 13.0227 7.81818 13.0227 6.95455C13.0227 6.44697 12.9527 5.94697 12.8125 5.45455C12.6761 4.95833 12.4678 4.49432 12.1875 4.0625C11.911 3.63068 11.5606 3.25 11.1364 2.92045C10.7121 2.59091 10.214 2.33333 9.64205 2.14773C9.07386 1.95833 8.42803 1.86364 7.70455 1.86364C6.81439 1.86364 6.01705 2.00189 5.3125 2.27841C4.61174 2.55114 4.01515 2.95076 3.52273 3.47727C3.03409 4 2.66098 4.63636 2.40341 5.38636C2.14962 6.13258 2.02273 6.98106 2.02273 7.93182C2.02273 8.89773 2.14962 9.75568 2.40341 10.5057C2.66098 11.2557 3.03977 11.8883 3.53977 12.4034C4.04356 12.9186 4.66667 13.3087 5.40909 13.5739C6.15152 13.8428 7.00758 13.9773 7.97727 13.9773C8.39394 13.9773 8.80492 13.9375 9.21023 13.858C9.61553 13.7784 9.97348 13.6913 10.2841 13.5966C10.5947 13.5019 10.8182 13.4318 10.9545 13.3864L11.2727 14.4318C11.0379 14.5303 10.7311 14.6288 10.3523 14.7273C9.97727 14.8258 9.57576 14.9072 9.14773 14.9716C8.72349 15.036 8.31818 15.0682 7.93182 15.0682ZM7.27273 10.5455C7.7803 10.5455 8.19129 10.4432 8.50568 10.2386C8.82008 10.0341 9.04924 9.72538 9.19318 9.3125C9.33712 8.89962 9.40909 8.37879 9.40909 7.75C9.40909 7.11364 9.32955 6.61742 9.17045 6.26136C9.01136 5.9053 8.77652 5.6553 8.46591 5.51136C8.1553 5.36742 7.77273 5.29545 7.31818 5.29545C6.88636 5.29545 6.51705 5.40909 6.21023 5.63636C5.9072 5.85985 5.67424 6.15909 5.51136 6.53409C5.35227 6.9053 5.27273 7.31061 5.27273 7.75C5.27273 8.23485 5.33712 8.69129 5.46591 9.11932C5.5947 9.54356 5.80492 9.88826 6.09659 10.1534C6.38826 10.4148 6.7803 10.5455 7.27273 10.5455Z" fill="url(#paint0_linear_384_2472)"/>
<path d="M7.93182 15.0682C6.77273 15.0682 5.74811 14.9091 4.85795 14.5909C3.9678 14.2765 3.2197 13.8125 2.61364 13.1989C2.00758 12.5852 1.54924 11.8333 1.23864 10.9432C0.92803 10.053 0.772727 9.03409 0.772727 7.88636C0.772727 6.77651 0.929924 5.78409 1.24432 4.90909C1.5625 4.03409 2.02273 3.29167 2.625 2.68182C3.23106 2.06818 3.96591 1.60038 4.82955 1.27841C5.69697 0.956439 6.67803 0.795454 7.77273 0.795454C8.83712 0.795454 9.76894 0.969696 10.5682 1.31818C11.3712 1.66288 12.0417 2.13068 12.5795 2.72159C13.1212 3.30871 13.5265 3.9697 13.7955 4.70455C14.0682 5.43939 14.2045 6.19697 14.2045 6.97727C14.2045 7.52651 14.178 8.08333 14.125 8.64773C14.072 9.21212 13.9602 9.73106 13.7898 10.2045C13.6193 10.6742 13.3561 11.053 13 11.3409C12.6477 11.6288 12.1705 11.7727 11.5682 11.7727C11.303 11.7727 11.0114 11.7311 10.6932 11.6477C10.375 11.5644 10.0928 11.4261 9.84659 11.233C9.60038 11.0398 9.45455 10.7803 9.40909 10.4545H9.34091C9.25 10.6742 9.10985 10.8826 8.92045 11.0795C8.73485 11.2765 8.49053 11.4337 8.1875 11.5511C7.88826 11.6686 7.52273 11.7197 7.09091 11.7045C6.59849 11.6856 6.16477 11.5758 5.78977 11.375C5.41477 11.1705 5.10038 10.8939 4.84659 10.5455C4.59659 10.1932 4.4072 9.78598 4.27841 9.32386C4.15341 8.85795 4.09091 8.35606 4.09091 7.81818C4.09091 7.30682 4.16667 6.83901 4.31818 6.41477C4.4697 5.99053 4.67992 5.61932 4.94886 5.30114C5.22159 4.98295 5.53977 4.72917 5.90341 4.53977C6.27083 4.34659 6.66667 4.22727 7.09091 4.18182C7.4697 4.14394 7.81439 4.16098 8.125 4.23295C8.43561 4.30114 8.69129 4.4053 8.89205 4.54545C9.0928 4.68182 9.2197 4.83333 9.27273 5H9.34091V4.36364H10.5455V9.5C10.5455 9.81818 10.6345 10.0985 10.8125 10.3409C10.9905 10.5833 11.25 10.7045 11.5909 10.7045C11.9773 10.7045 12.2727 10.572 12.4773 10.3068C12.6856 10.0417 12.8277 9.63258 12.9034 9.07955C12.983 8.52652 13.0227 7.81818 13.0227 6.95455C13.0227 6.44697 12.9527 5.94697 12.8125 5.45455C12.6761 4.95833 12.4678 4.49432 12.1875 4.0625C11.911 3.63068 11.5606 3.25 11.1364 2.92045C10.7121 2.59091 10.214 2.33333 9.64205 2.14773C9.07386 1.95833 8.42803 1.86364 7.70455 1.86364C6.81439 1.86364 6.01705 2.00189 5.3125 2.27841C4.61174 2.55114 4.01515 2.95076 3.52273 3.47727C3.03409 4 2.66098 4.63636 2.40341 5.38636C2.14962 6.13258 2.02273 6.98106 2.02273 7.93182C2.02273 8.89773 2.14962 9.75568 2.40341 10.5057C2.66098 11.2557 3.03977 11.8883 3.53977 12.4034C4.04356 12.9186 4.66667 13.3087 5.40909 13.5739C6.15152 13.8428 7.00758 13.9773 7.97727 13.9773C8.39394 13.9773 8.80492 13.9375 9.21023 13.858C9.61553 13.7784 9.97348 13.6913 10.2841 13.5966C10.5947 13.5019 10.8182 13.4318 10.9545 13.3864L11.2727 14.4318C11.0379 14.5303 10.7311 14.6288 10.3523 14.7273C9.97727 14.8258 9.57576 14.9072 9.14773 14.9716C8.72349 15.036 8.31818 15.0682 7.93182 15.0682ZM7.27273 10.5455C7.7803 10.5455 8.19129 10.4432 8.50568 10.2386C8.82008 10.0341 9.04924 9.72538 9.19318 9.3125C9.33712 8.89962 9.40909 8.37879 9.40909 7.75C9.40909 7.11364 9.32955 6.61742 9.17045 6.26136C9.01136 5.9053 8.77652 5.6553 8.46591 5.51136C8.1553 5.36742 7.77273 5.29545 7.31818 5.29545C6.88636 5.29545 6.51705 5.40909 6.21023 5.63636C5.9072 5.85985 5.67424 6.15909 5.51136 6.53409C5.35227 6.9053 5.27273 7.31061 5.27273 7.75C5.27273 8.23485 5.33712 8.69129 5.46591 9.11932C5.5947 9.54356 5.80492 9.88826 6.09659 10.1534C6.38826 10.4148 6.7803 10.5455 7.27273 10.5455Z" fill="black" fill-opacity="0.24"/>
<defs>
<linearGradient id="paint0_linear_384_2472" x1="0" y1="-3" x2="15.5315" y2="-2.55513" gradientUnits="userSpaceOnUse">
<stop stop-color="#7DD8F5"/>
<stop offset="0.485" stop-color="#A18BEE"/>
<stop offset="1" stop-color="#DE68CB"/>
</linearGradient>
</defs>
</svg>
