<svg width="40" height="40" viewBox="0 0 40 40" fill="none" xmlns="http://www.w3.org/2000/svg">
<path d="M7.16016 21.5733C8.02682 21.5333 8.76016 21.2 9.36016 20.5733C9.96016 19.9467 10.2668 19.2 10.2668 18.3333C10.2668 19.2 10.5602 19.9467 11.1602 20.5733C11.7602 21.2 12.4935 21.5333 13.3602 21.5733C12.4935 21.6133 11.7602 21.9467 11.1602 22.5733C10.8701 22.8688 10.6417 23.219 10.4883 23.6035C10.3349 23.9881 10.2597 24.3994 10.2668 24.8134C10.2668 23.9467 9.97349 23.2 9.36016 22.5733C8.76016 21.9467 8.02682 21.6133 7.16016 21.5733ZM10.2668 11.9733C11.9468 11.8933 13.3735 11.24 14.5468 10.0133C15.7202 8.78668 16.3068 7.33335 16.3068 5.64001C16.3068 7.33335 16.8935 8.78668 18.0668 10.0133C19.2402 11.24 20.6668 11.88 22.3602 11.9733C21.2535 12.0267 20.2402 12.3333 19.3068 12.92C18.3868 13.4933 17.6535 14.2667 17.1068 15.2267C16.5735 16.1867 16.3068 17.2133 16.3068 18.3333C16.3068 16.64 15.7202 15.1733 14.5468 13.9467C13.3735 12.7067 11.9468 12.0533 10.2668 11.9733ZM14.6935 26.3333C15.9602 26.28 17.0402 25.7867 17.9202 24.8667C18.8002 23.9467 19.2402 22.8533 19.2402 21.5733C19.2402 22.8533 19.6802 23.9467 20.5602 24.8667C21.4402 25.7867 22.5068 26.28 23.7735 26.3333C22.5068 26.3867 21.4402 26.88 20.5602 27.8C19.6802 28.72 19.2402 29.8133 19.2402 31.0933C19.2402 29.8133 18.8002 28.72 17.9202 27.8C17.0793 26.9058 15.9201 26.3789 14.6935 26.3333ZM23.7735 20.0133C25.0402 19.96 26.1068 19.4667 26.9868 18.5467C27.8668 17.6267 28.2935 16.5333 28.2935 15.24C28.2935 16.52 28.7335 17.6133 29.6135 18.5333C30.4935 19.4533 31.5735 19.9467 32.8402 20C31.5735 20.0533 30.4935 20.5467 29.6135 21.4667C28.7335 22.3867 28.2935 23.48 28.2935 24.76C28.2935 23.48 27.8535 22.3867 26.9868 21.4667C26.1068 20.56 25.0402 20.0667 23.7735 20.0133Z" fill="#D3F85A"/>
</svg>
