<svg width="136" height="100" viewBox="0 0 136 100" fill="none" xmlns="http://www.w3.org/2000/svg">
<g clipPath="url(#clip0_2168_6560)">
<path d="M29.5284 0C29.5284 0 29.7673 0.45857 30.1974 1.31246C30.5955 2.16635 31.2485 3.39975 32.029 4.9494C33.6694 8.00127 36.4407 12.0493 40.0243 16.3504C43.56 20.6989 48.7044 24.8102 54.5018 28.0361C60.3311 31.2935 67.1797 33.191 74.1079 34.2663C81.0998 35.3257 88.2669 34.5035 94.6377 32.6376C101.024 30.8033 106.965 27.9728 111.425 24.5414C115.884 21.1575 119.531 17.8526 121.825 15.2593C122.94 13.9311 123.864 12.8874 124.453 12.1442C125.074 11.4168 125.409 11.0215 125.409 11.0215C125.409 11.0215 125.329 11.5275 125.122 12.4605C124.947 13.4092 124.548 14.7691 123.943 16.4927C122.685 19.845 120.599 24.8577 116.282 29.649C112.046 34.4086 106.217 39.6584 98.4601 42.9633C90.7515 46.284 81.5776 47.6913 72.6585 46.6793C63.7395 45.6515 55.123 42.1885 48.4018 37.2075C41.6329 32.2264 37.1574 25.7906 34.1154 20.2087C31.0256 14.5636 30.1336 9.20304 29.6877 5.66097C29.4966 3.8425 29.4169 2.43517 29.4647 1.47059C29.4966 0.506009 29.5125 0 29.5125 0L29.5284 0Z" fill="url(#paint0_linear_2168_6560)"/>
<path d="M0 98.2132C0 98.2132 0.159269 98.2132 0.477808 98.2132C0.796346 98.2132 1.25823 98.2606 1.86345 98.2132C3.05797 98.1973 4.82586 98.055 6.92821 97.549C11.1648 96.5844 16.564 93.5642 21.4536 88.5199C23.9541 86.0057 26.2794 82.8431 28.541 79.2853C30.8186 75.7274 33.0643 71.7268 35.8037 67.5838C38.5591 63.4409 41.6171 59.0765 45.8855 55.0285C48.0675 53.0202 50.568 51.1069 53.6578 49.6679C56.6998 48.229 60.5223 47.3435 64.3288 47.7704C68.1195 48.1341 71.5119 49.6521 74.2035 51.3599C76.927 53.0835 79.0931 55.0443 81.0521 56.926C83.0111 58.8235 84.6994 60.6262 86.3558 62.2707C88.0281 63.9469 89.7164 65.544 91.3887 67.0936C98.0621 73.2448 104.943 78.2733 111.68 80.8982C118.369 83.5547 124.517 84.8197 128.944 84.9146C131.158 84.9937 132.926 84.8672 134.137 84.8039C135.363 84.6932 136 84.6458 136 84.6458C136 84.6458 135.411 84.9462 134.328 85.5155C133.197 86.0215 131.509 86.7647 129.231 87.334C126.969 87.919 124.119 88.4883 120.774 88.6464C117.445 88.8046 113.623 88.5516 109.577 87.6028C101.502 85.7527 92.408 81.7204 84.3012 75.5535C82.2626 74.0196 80.2717 72.3909 78.3286 70.6831C76.3537 68.9595 74.5061 67.1885 72.7701 65.6547C71.0182 64.105 69.314 62.7451 67.6894 61.7963C66.049 60.8318 64.5996 60.3099 63.2458 60.2151C61.9239 60.0886 60.5223 60.3416 58.9137 61.0215C57.321 61.7173 55.6487 62.8084 54.0401 64.1366C50.775 66.8722 47.6852 70.3985 44.7865 74.0038C41.856 77.6249 38.9254 81.3567 35.8197 84.7723C32.7139 88.1879 29.4489 91.2872 26.0883 93.8014C22.7436 96.3156 19.1282 98.055 15.8314 98.9405C12.5345 99.8735 9.54023 100.063 7.15119 99.9368C4.74622 99.8419 2.93055 99.3359 1.75196 98.9247C1.16267 98.735 0.732638 98.5136 0.430027 98.3871C0.143342 98.2606 0 98.1815 0 98.1815L0 98.2132Z" fill="#D3F85A"/>
<path d="M79.9531 14.5636C79.9531 20.3511 75.2228 25.0475 69.3935 25.0475C63.5643 25.0475 58.834 20.3511 58.834 14.5636C58.834 8.77611 63.5643 4.07971 69.3935 4.07971C75.2228 4.07971 79.9531 8.77611 79.9531 14.5636Z" fill="#D3F85A"/>
</g>
<defs>
<linearGradient id="paint0_linear_2168_6560" x1="-9.4129" y1="22.8653" x2="97.6636" y2="23.9561" gradientUnits="userSpaceOnUse">
<stop stopColor="#1F878A"/>
<stop offset="0.47" stop-color="#16D8D8"/>
<stop offset="0.57" stop-color="#16D0D1"/>
<stop offset="0.71" stop-color="#18BDBE"/>
<stop offset="0.87" stop-color="#1C9D9F"/>
<stop offset="1" stop-color="#207F82"/>
</linearGradient>
<clipPath id="clip0_2168_6560">
<rect width="136" height="100" fill="white"/>
</clipPath>
</defs>
</svg>
