<svg width="15" height="14" viewBox="0 0 15 14" fill="none" xmlns="http://www.w3.org/2000/svg">
<path d="M14.9778 6.99707C14.9778 10.5309 12.3591 13.4524 8.95717 13.9265C8.63908 13.9706 8.31364 13.9937 7.98329 13.9937C7.60198 13.9937 7.22753 13.9633 6.86288 13.9044C3.53201 13.3681 0.988281 10.4794 0.988281 6.99707C0.988281 3.1328 4.12016 0 7.9828 0C11.8455 0 14.9778 3.1328 14.9778 6.99707Z" fill="#1877F2"/>
<path d="M8.95677 5.62363V7.14787H10.8418L10.5433 9.2011H8.95677V13.9317C8.63868 13.9758 8.31324 13.9988 7.9829 13.9988C7.60159 13.9988 7.22713 13.9684 6.86248 13.9096V9.2011H5.12402V7.14787H6.86248V5.2829C6.86248 4.12587 7.80009 3.1875 8.95726 3.1875V3.18848C8.96069 3.18848 8.96364 3.1875 8.96707 3.1875H10.8423V4.96324H9.61697C9.25281 4.96324 8.95726 5.25887 8.95726 5.62314L8.95677 5.62363Z" fill="white"/>
</svg>
