<svg width="14" height="14" viewBox="0 0 14 14" fill="none" xmlns="http://www.w3.org/2000/svg">
<path d="M7.01594 0L6.98406 0C3.12687 0 0 3.12687 0 6.98406L0 7.01594C0 10.8731 3.12687 14 6.98406 14L7.01594 14C10.8731 14 14 10.8731 14 7.01594L14 6.98406C14 3.12687 10.8731 0 7.01594 0Z" fill="url(#paint0_linear_25512_418676)"/>
<path d="M9.17037 2.85156L4.83838 2.85156C3.64159 2.85156 2.66797 3.82518 2.66797 5.02197L2.66797 8.98512C2.66797 10.1819 3.64159 11.1555 4.83838 11.1555L9.17037 11.1555C10.3672 11.1555 11.3408 10.1819 11.3408 8.98512L11.3408 5.02197C11.3408 3.82518 10.3672 2.85156 9.17037 2.85156ZM3.43362 5.02197C3.43362 4.24749 4.0639 3.61721 4.83838 3.61721L9.17037 3.61721C9.94485 3.61721 10.5751 4.24749 10.5751 5.02197L10.5751 8.98512C10.5751 9.7596 9.94485 10.3899 9.17037 10.3899L4.83838 10.3899C4.0639 10.3899 3.43362 9.7596 3.43362 8.98512L3.43362 5.02197Z" fill="white"/>
<path d="M7.00616 9.02207C8.11907 9.02207 9.025 8.11663 9.025 7.00322C9.025 5.88982 8.11956 4.98438 7.00616 4.98438C5.89275 4.98438 4.9873 5.88982 4.9873 7.00322C4.9873 8.11663 5.89275 9.02207 7.00616 9.02207ZM7.00616 5.75052C7.69725 5.75052 8.25935 6.31262 8.25935 7.00371C8.25935 7.69481 7.69725 8.25691 7.00616 8.25691C6.31506 8.25691 5.75296 7.69481 5.75296 7.00371C5.75296 6.31262 6.31506 5.75052 7.00616 5.75052Z" fill="white"/>
<path d="M9.21387 5.31479C9.51356 5.31479 9.75782 5.07094 9.75782 4.77067C9.75782 4.47041 9.51405 4.22656 9.21387 4.22656C8.91369 4.22656 8.66992 4.47041 8.66992 4.77067C8.66992 5.07094 8.91369 5.31479 9.21387 5.31479Z" fill="white"/>
<defs>
<linearGradient id="paint0_linear_25512_418676" x1="2.04533" y1="11.9547" x2="11.9547" y2="2.04583" gradientUnits="userSpaceOnUse">
<stop stop-color="#FAAD4F"/>
<stop offset="0.35" stop-color="#DD2A7B"/>
<stop offset="0.62" stop-color="#9537B0"/>
<stop offset="1" stop-color="#515BD4"/>
</linearGradient>
</defs>
</svg>
