<svg width="14" height="14" viewBox="0 0 14 14" fill="none" xmlns="http://www.w3.org/2000/svg">
<path d="M7.00997 0H6.9781C3.12205 0 -0.00390625 3.12687 -0.00390625 6.98406V7.01594C-0.00390625 10.8731 3.12205 14 6.9781 14H7.00997C10.866 14 13.992 10.8731 13.992 7.01594V6.98406C13.992 3.12687 10.866 0 7.00997 0Z" fill="#007EBB"/>
<path d="M3.33465 4.65438C3.15028 4.4832 3.05859 4.2713 3.05859 4.01919C3.05859 3.76708 3.15077 3.54587 3.33465 3.3742C3.51902 3.20302 3.75635 3.11719 4.04712 3.11719C4.3379 3.11719 4.56591 3.20302 4.74979 3.3742C4.93416 3.54538 5.02585 3.76071 5.02585 4.01919C5.02585 4.27768 4.93367 4.4832 4.74979 4.65438C4.56542 4.82556 4.33152 4.91139 4.04712 4.91139C3.76272 4.91139 3.51902 4.82556 3.33465 4.65438ZM4.8709 5.63633V10.8846H3.21305V5.63633H4.8709Z" fill="#FEFFFC"/>
<path d="M10.3875 6.1589C10.7489 6.55129 10.9293 7.08984 10.9293 7.77555V10.796H9.35484V7.98842C9.35484 7.64263 9.26511 7.37384 9.08613 7.18255C8.90716 6.99126 8.66591 6.89512 8.36386 6.89512C8.06181 6.89512 7.82055 6.99077 7.64157 7.18255C7.4626 7.37384 7.37286 7.64263 7.37286 7.98842V10.796H5.78906V5.62574H7.37286V6.31144C7.53321 6.08287 7.74946 5.90237 8.02111 5.76945C8.29276 5.63653 8.59824 5.57031 8.93805 5.57031C9.54313 5.57031 10.0266 5.76651 10.3875 6.1589Z" fill="#FEFFFC"/>
</svg>
