<svg width="15" height="14" viewBox="0 0 15 14" fill="none" xmlns="http://www.w3.org/2000/svg">
<path d="M8.00422 0L7.97234 0C4.11515 0 0.988281 3.12687 0.988281 6.98406L0.988281 7.01594C0.988281 10.8731 4.11515 14 7.97234 14L8.00422 14C11.8614 14 14.9883 10.8731 14.9883 7.01594L14.9883 6.98406C14.9883 3.12687 11.8614 0 8.00422 0Z" fill="black"/>
<path d="M11.5441 5.56011L11.5441 6.88198C11.313 6.85942 11.0129 6.80693 10.6808 6.68529C10.2472 6.52637 9.92446 6.30909 9.71306 6.14085L9.71306 8.81254L9.70767 8.8042C9.7111 8.85717 9.71306 8.91113 9.71306 8.96557C9.71306 10.2923 8.6335 11.3724 7.30624 11.3724C5.97898 11.3724 4.89941 10.2923 4.89941 8.96557C4.89941 7.6388 5.97898 6.55826 7.30624 6.55826C7.43622 6.55826 7.56375 6.56856 7.68833 6.58867L7.68833 7.8914C7.56865 7.84873 7.44014 7.82568 7.30624 7.82568C6.67792 7.82568 6.16635 8.33677 6.16635 8.96557C6.16635 9.59438 6.67792 10.1055 7.30624 10.1055C7.93455 10.1055 8.44614 9.59389 8.44614 8.96557C8.44614 8.94203 8.44564 8.91848 8.44417 8.89494L8.44417 3.70313L9.76505 3.70313C9.76996 3.81496 9.77438 3.92777 9.77928 4.0396C9.78811 4.25983 9.86659 4.47123 10.0034 4.64437C10.1638 4.84792 10.4007 5.08434 10.7333 5.27318C11.0447 5.44975 11.3371 5.52529 11.5441 5.56109V5.56011Z" fill="#FF004F"/>
<path d="M11.088 4.49078L11.088 5.81265C10.857 5.79008 10.5568 5.7376 10.2247 5.61596C9.79115 5.45704 9.46841 5.23976 9.25701 5.07152L9.25701 7.74321L9.25161 7.73487C9.25504 7.78784 9.25701 7.8418 9.25701 7.89624C9.25701 9.22301 8.17744 10.3031 6.85018 10.3031C5.52292 10.3031 4.44336 9.22301 4.44336 7.89624C4.44336 6.56947 5.52292 5.48892 6.85018 5.48892C6.98016 5.48892 7.10769 5.49922 7.23227 5.51933L7.23227 6.82207C7.11259 6.7794 6.98409 6.75635 6.85018 6.75635C6.22187 6.75635 5.71029 7.26743 5.71029 7.89624C5.71029 8.52505 6.22187 9.03613 6.85018 9.03613C7.4785 9.03613 7.99008 8.52455 7.99008 7.89624C7.99008 7.8727 7.98959 7.84915 7.98811 7.82561L7.98811 2.63281L9.309 2.63281C9.3139 2.74464 9.31832 2.85746 9.32322 2.96929C9.33205 3.18952 9.41053 3.40092 9.54738 3.57406C9.70777 3.77761 9.94467 4.01403 10.2772 4.20286C10.5887 4.37895 10.881 4.45498 11.088 4.49078Z" fill="#00F7EF"/>
<path d="M11.3751 5.06793L11.3751 6.38979C11.1441 6.36723 10.8439 6.31475 10.5118 6.1931C10.0783 6.03419 9.75552 5.8169 9.54412 5.64866L9.54412 8.32035L9.53872 8.31201C9.54216 8.36499 9.54412 8.41894 9.54412 8.47338C9.54412 9.80015 8.46455 10.8802 7.13729 10.8802C5.81003 10.8802 4.73047 9.80015 4.73047 8.47338C4.73047 7.14661 5.81003 6.06607 7.13729 6.06607C7.26727 6.06607 7.3948 6.07637 7.51939 6.09648L7.51939 7.39921C7.39971 7.35654 7.2712 7.33349 7.13729 7.33349C6.50898 7.33349 5.9974 7.84458 5.9974 8.47338C5.9974 9.10219 6.50898 9.61328 7.13729 9.61328C7.76561 9.61328 8.27719 9.1017 8.27719 8.47338C8.27719 8.44984 8.2767 8.4263 8.27523 8.40275L8.27523 3.21094L9.59611 3.21094C9.60101 3.32277 9.60543 3.43558 9.61034 3.54741C9.61916 3.76764 9.69764 3.97904 9.83449 4.15218C9.99488 4.35574 10.2318 4.59215 10.5643 4.78099C10.8758 4.95708 11.1681 5.0331 11.3751 5.06891V5.06793Z" fill="white"/>
</svg>
