<svg width="14" height="14" viewBox="0 0 14 14" fill="none" xmlns="http://www.w3.org/2000/svg">
<path d="M7.00606 0H6.97418C3.11813 0 -0.0078125 3.12687 -0.0078125 6.98406V7.01594C-0.0078125 10.8731 3.11813 14 6.97418 14H7.00606C10.8621 14 13.9881 10.8731 13.9881 7.01594V6.98406C13.9881 3.12687 10.8621 0 7.00606 0Z" fill="#A544FF"/>
<path d="M4.8049 3.35156L3.24609 4.91082V10.5235H5.11627V12.0827L6.67508 10.5235H7.92202L10.7278 7.71691V3.35156H4.8049ZM10.104 7.40496L8.8571 8.65227H7.61015L6.51914 9.7436V8.65227H5.11627V3.97497H10.104V7.40496Z" fill="white"/>
<path d="M9.1701 5.07031H8.54688V6.94103H9.1701V5.07031Z" fill="white"/>
<path d="M7.45623 5.07031H6.83301V6.94103H7.45623V5.07031Z" fill="white"/>
</svg>
