<svg width="14" height="14" viewBox="0 0 14 14" fill="none" xmlns="http://www.w3.org/2000/svg">
<path d="M13.9954 7.00025C13.9954 10.5357 11.3755 13.4585 7.972 13.9328C7.65377 13.9769 7.32818 14 6.99769 14C6.6162 14 6.24158 13.9696 5.87677 13.9107C2.54488 13.3741 0 10.4842 0 7.00025C0 3.13422 3.13329 0 6.99818 0C10.8631 0 13.9964 3.13422 13.9964 7.00025H13.9954Z" fill="black"/>
<path d="M2.83847 3.08594L6.0659 7.40223L2.81836 10.9117H3.54946L6.39297 7.83926L8.69022 10.9117H11.1777L7.76887 6.35259L10.7918 3.08594H10.0607L7.4423 5.91556L5.32647 3.08594H2.83895H2.83847ZM3.91329 3.62449H5.0558L10.1019 10.3731H8.95942L3.91329 3.62449Z" fill="white"/>
</svg>
