<svg width="14" height="14" viewBox="0 0 14 14" fill="none" xmlns="http://www.w3.org/2000/svg">
<path d="M14 7C14 3.13401 10.866 0 7.00001 0C3.13401 0 0 3.13401 0 7C0 10.866 3.13401 14 7.00001 14C10.866 14 14 10.866 14 7Z" fill="#FF0209"/>
<path d="M9.96567 10.0954C9.75711 10.118 9.54363 10.122 9.33901 10.1215C7.74285 10.12 6.14668 10.1185 4.55101 10.1176C4.04879 10.1176 3.50182 10.1013 3.11372 9.78209C2.67644 9.42154 2.58544 8.79636 2.55002 8.23069C2.50084 7.45548 2.4969 6.67781 2.53724 5.90211C2.55937 5.47614 2.59823 5.03984 2.7817 4.6542C2.91352 4.37727 3.1334 4.12838 3.41475 3.99754C3.74186 3.84554 4.08421 3.8726 4.4364 3.87211C5.27949 3.87112 6.12258 3.87063 6.96567 3.86965C7.84221 3.86866 8.71923 3.86817 9.59577 3.86719C10.0099 3.86719 10.4546 3.87555 10.7925 4.1151C11.2288 4.424 11.3474 5.0118 11.402 5.54353C11.5028 6.52287 11.5043 7.51254 11.4059 8.49188C11.3651 8.89572 11.2972 9.32267 11.0311 9.62912C10.7674 9.9331 10.3764 10.0502 9.96616 10.0949L9.96567 10.0954Z" fill="white"/>
<path d="M8.42953 6.99834L6.05078 5.625L6.05078 8.37168L8.42953 6.99834Z" fill="#FF0209"/>
</svg>
